<svg width="505" height="158" viewBox="0 0 505 158" fill="none" xmlns="http://www.w3.org/2000/svg">
<path d="M15.0035 140.514L6.6875 41.9701L495.414 6.77588L497.973 118.118L490.936 114.918H477.503L462.79 110.439L439.761 114.918L432.084 110.439L416.732 112.998L396.262 110.439L388.585 118.118L378.99 110.439C376.005 111.719 369.65 114.022 368.115 112.998C366.58 111.975 367.475 105.32 368.115 102.12H347.645L346.365 105.96L335.491 94.4415L318.859 84.2032L307.344 98.9208H299.668V105.96L290.712 97.0011L297.109 105.32H274.08V118.118L268.962 121.317L245.933 118.118L222.265 112.998L207.552 121.317L194.758 112.998L187.721 125.157H178.765L165.971 137.954L163.413 146.913L149.339 137.954L144.862 144.353H132.707L126.31 150.112L112.877 140.514H98.1638L78.973 137.954L70.657 140.514L61.0616 137.954H45.0692L36.7532 140.514L27.7974 137.954L18.8417 144.353L15.0035 140.514Z" fill="#B0D1B0" stroke="white" stroke-width="12.2987"/>
<path d="M100.449 80.6381L99.1298 64.8532L105.492 64.321C106.464 64.2397 107.332 64.2554 108.097 64.3681C108.877 64.4794 109.544 64.6885 110.1 64.9953C110.67 65.2848 111.112 65.6733 111.425 66.1608C111.755 66.6471 111.949 67.233 112.006 67.9186C112.059 68.5563 111.972 69.1417 111.743 69.6746C111.531 70.2061 111.143 70.656 110.58 71.0243C110.031 71.3752 109.29 71.6299 108.356 71.7883L108.374 72.0036C109.991 71.9486 111.186 72.2259 111.959 72.8356C112.749 73.4439 113.189 74.2981 113.281 75.3983C113.359 76.3231 113.183 77.1084 112.756 77.7543C112.328 78.4002 111.665 78.9213 110.767 79.3175C109.884 79.6965 108.764 79.9426 107.409 80.056L100.449 80.6381ZM104.064 77.2049L106.982 76.9608C107.795 76.8928 108.413 76.6966 108.835 76.3723C109.256 76.032 109.444 75.5908 109.399 75.0487C109.348 74.4428 109.056 74.0177 108.521 73.7734C108.002 73.5118 107.24 73.423 106.235 73.507L103.772 73.7131L104.064 77.2049ZM103.552 71.0822L105.633 70.9082C106.542 70.8322 107.223 70.6227 107.676 70.2797C108.129 69.9368 108.33 69.4703 108.281 68.8804C108.234 68.3223 107.985 67.9258 107.531 67.6907C107.077 67.4398 106.419 67.3503 105.558 67.4223L103.262 67.6143L103.552 71.0822ZM114.904 79.429L114.331 72.565L113.849 66.8011L117.197 66.521L117.617 71.5435L117.808 71.5275C117.792 70.1802 117.887 69.1125 118.094 68.3245C118.316 67.5192 118.621 66.9398 119.009 66.5862C119.411 66.2154 119.876 66.008 120.402 65.9639C120.689 65.9399 120.987 65.9551 121.297 66.0095C121.622 66.0626 121.944 66.1641 122.261 66.3142L122.43 70.6352C122.062 70.4572 121.706 70.3344 121.364 70.2668C121.019 70.1832 120.696 70.154 120.393 70.1794C119.883 70.222 119.464 70.4015 119.137 70.7179C118.811 71.0342 118.575 71.4794 118.43 72.0535C118.301 72.6262 118.27 73.3112 118.337 74.1084L118.755 79.107L114.904 79.429ZM124.48 78.6281L123.425 66.0001L127.299 65.676L128.355 78.304L124.48 78.6281ZM125.262 64.9312C124.529 64.9926 123.95 64.8885 123.526 64.6189C123.117 64.332 122.887 63.8936 122.838 63.3036C122.787 62.6977 122.941 62.2273 123.298 61.8924C123.67 61.5401 124.223 61.3334 124.956 61.272C125.706 61.2093 126.285 61.3214 126.694 61.6083C127.119 61.8938 127.357 62.3316 127.406 62.9215C127.454 63.4955 127.292 63.9586 126.92 64.3109C126.564 64.6618 126.011 64.8686 125.262 64.9312ZM130.086 78.1592L129.488 71.0081L129.03 65.5313L132.307 65.2572L132.737 70.3993L132.928 70.3832C132.92 69.1316 133.042 68.0938 133.294 67.2699C133.545 66.4301 133.948 65.7862 134.505 65.3382C135.062 64.8903 135.794 64.6283 136.703 64.5523C138.074 64.4376 139.141 64.806 139.902 65.6575C140.68 66.5076 141.144 67.8335 141.295 69.6353L141.924 77.169L138.05 77.4931L137.462 70.4616C137.39 69.6006 137.201 68.9662 136.894 68.5583C136.603 68.1492 136.17 67.9686 135.596 68.0166C135.118 68.0566 134.709 68.2594 134.37 68.6249C134.032 68.9904 133.79 69.5565 133.645 70.3232C133.501 71.09 133.481 72.1031 133.586 73.3627L133.96 77.8351L130.086 78.1592ZM148.83 80.3966C147.411 80.5153 146.277 80.4977 145.43 80.3439C144.582 80.19 143.966 79.9284 143.582 79.5591C143.199 79.2058 142.986 78.774 142.944 78.2638C142.885 77.5623 143.117 76.9809 143.641 76.5197C144.163 76.0425 144.951 75.6795 146.006 75.4307L145.996 75.3111C145.183 75.3791 144.534 75.2969 144.049 75.0646C143.563 74.8162 143.299 74.4449 143.257 73.9507C143.219 73.4883 143.391 73.0564 143.775 72.655C144.175 72.2523 144.853 72.0109 145.81 71.9309L145.796 71.7635C144.918 71.6282 144.199 71.2869 143.639 70.7397C143.08 70.1924 142.761 69.4484 142.682 68.5077C142.613 67.6786 142.76 66.9437 143.124 66.3032C143.504 65.6613 144.086 65.1389 144.871 64.7361C145.655 64.3173 146.629 64.0592 147.793 63.9618L154.083 63.4357L154.331 66.4014L149.956 66.2134L149.972 66.4047C151.31 66.4694 152.228 66.6977 152.727 67.0895C153.24 67.464 153.521 67.9463 153.57 68.5362C153.62 69.1262 153.48 69.6677 153.152 70.1607C152.84 70.6525 152.321 71.0652 151.594 71.3989C150.866 71.7167 149.928 71.9236 148.78 72.0196C148.429 72.049 148.069 72.063 147.7 72.0618C147.346 72.0593 147.039 72.0368 146.779 71.9943C146.517 72.1286 146.312 72.2662 146.163 72.4071C146.029 72.5307 145.967 72.6563 145.978 72.7839C145.984 72.8636 146.022 72.9247 146.089 72.9672C146.156 72.9937 146.246 73.0103 146.358 73.0169C146.487 73.0222 146.632 73.0182 146.791 73.0048L150.618 72.6848C150.952 72.6568 151.369 72.646 151.867 72.6525C152.38 72.6417 152.892 72.7193 153.404 72.8852C153.93 73.0339 154.38 73.3254 154.754 73.7598C155.127 74.1942 155.349 74.8339 155.42 75.6789C155.5 76.6356 155.31 77.4382 154.85 78.0868C154.407 78.734 153.687 79.2438 152.69 79.6161C151.695 80.0044 150.408 80.2646 148.83 80.3966ZM148.546 77.0005C149.614 76.9111 150.4 76.8052 150.904 76.6828C151.409 76.5764 151.735 76.4527 151.884 76.3118C152.033 76.1709 152.101 76.0208 152.087 75.8613C152.069 75.6381 151.99 75.468 151.852 75.3512C151.714 75.2343 151.547 75.1599 151.352 75.1281C151.155 75.0803 150.961 75.0644 150.77 75.0804C150.593 75.0792 150.449 75.0832 150.337 75.0925L147.108 75.3626C146.613 75.5806 146.276 75.7774 146.098 75.9529C145.935 76.111 145.861 76.2858 145.877 76.4771C145.896 76.7003 146.013 76.8511 146.228 76.9294C146.46 77.0224 146.769 77.0688 147.155 77.0687C147.556 77.0672 148.02 77.0445 148.546 77.0005ZM148.365 69.935C148.875 69.8923 149.252 69.7002 149.497 69.3586C149.757 69.0157 149.864 68.5653 149.817 68.0072C149.771 67.4492 149.59 67.0147 149.275 66.7039C148.958 66.3771 148.545 66.2351 148.035 66.2777C147.541 66.3191 147.157 66.5278 146.883 66.9039C146.624 67.2628 146.518 67.7212 146.565 68.2793C146.595 68.646 146.686 68.9595 146.836 69.2199C146.986 69.4803 147.187 69.6723 147.438 69.7958C147.705 69.9179 148.014 69.9643 148.365 69.935ZM156.641 75.938L155.586 63.31L159.46 62.986L160.516 75.6139L156.641 75.938ZM157.423 62.2412C156.69 62.3025 156.111 62.1984 155.687 61.9288C155.278 61.6419 155.048 61.2035 154.999 60.6136C154.949 60.0077 155.102 59.5372 155.459 59.2023C155.831 58.8501 156.384 58.6433 157.117 58.5819C157.867 58.5192 158.446 58.6313 158.855 58.9182C159.281 59.2038 159.518 59.6415 159.567 60.2315C159.615 60.8055 159.453 61.2686 159.081 61.6208C158.725 61.9717 158.173 62.1785 157.423 62.2412ZM162.247 75.4691L161.649 68.3181L161.191 62.8412L164.468 62.5671L164.898 67.7092L165.089 67.6932C165.081 66.4415 165.203 65.4037 165.455 64.5798C165.706 63.74 166.11 63.0961 166.666 62.6482C167.223 62.2002 167.956 61.9382 168.864 61.8622C170.236 61.7475 171.302 62.1159 172.064 62.9674C172.841 63.8175 173.305 65.1435 173.456 66.9452L174.085 74.4789L170.211 74.803L169.623 67.7715C169.551 66.9105 169.362 66.2761 169.055 65.8683C168.764 65.4591 168.331 65.2785 167.757 65.3265C167.279 65.3666 166.87 65.5693 166.532 65.9348C166.193 66.3003 165.951 66.8664 165.806 67.6332C165.662 68.3999 165.642 69.4131 165.747 70.6727L166.121 75.1451L162.247 75.4691ZM180.991 77.7066C179.572 77.8252 178.438 77.8077 177.591 77.6538C176.743 77.4999 176.127 77.2383 175.743 76.8691C175.36 76.5157 175.147 76.084 175.105 75.5738C175.046 74.8722 175.279 74.2908 175.802 73.8296C176.324 73.3524 177.113 72.9894 178.167 72.7406L178.157 72.621C177.344 72.689 176.695 72.6069 176.21 72.3745C175.724 72.1262 175.46 71.7549 175.419 71.2606C175.38 70.7982 175.553 70.3663 175.936 69.9649C176.336 69.5622 177.015 69.3208 177.971 69.2408L177.957 69.0734C177.079 68.9381 176.36 68.5969 175.8 68.0496C175.241 67.5023 174.922 66.7583 174.843 65.8176C174.774 64.9885 174.921 64.2537 175.285 63.6131C175.665 62.9712 176.247 62.4488 177.033 62.046C177.816 61.6272 178.79 61.3691 179.954 61.2718L186.244 60.7456L186.492 63.7113L182.117 63.5233L182.133 63.7146C183.471 63.7793 184.39 64.0076 184.888 64.3994C185.401 64.774 185.682 65.2562 185.731 65.8461C185.781 66.4361 185.641 66.9776 185.313 67.4707C185.001 67.9624 184.482 68.3751 183.755 68.7088C183.027 69.0266 182.089 69.2335 180.941 69.3296C180.59 69.3589 180.23 69.373 179.861 69.3718C179.507 69.3692 179.2 69.3467 178.94 69.3043C178.678 69.4386 178.473 69.5761 178.324 69.717C178.19 69.8406 178.128 69.9662 178.139 70.0938C178.146 70.1735 178.183 70.2346 178.251 70.2771C178.317 70.3037 178.407 70.3203 178.52 70.3269C178.648 70.3321 178.793 70.3281 178.952 70.3148L182.779 69.9947C183.114 69.9667 183.53 69.9559 184.028 69.9624C184.541 69.9516 185.054 70.0292 185.565 70.1951C186.091 70.3438 186.541 70.6353 186.915 71.0697C187.288 71.5041 187.51 72.1438 187.581 72.9888C187.661 73.9455 187.471 74.7481 187.011 75.3967C186.568 76.0439 185.848 76.5537 184.851 76.9261C183.856 77.3144 182.569 77.5745 180.991 77.7066ZM180.707 74.3104C181.775 74.221 182.561 74.1152 183.065 73.9928C183.57 73.8863 183.896 73.7626 184.045 73.6217C184.194 73.4809 184.262 73.3307 184.248 73.1712C184.23 72.948 184.151 72.778 184.013 72.6611C183.875 72.5442 183.708 72.4698 183.513 72.438C183.316 72.3902 183.122 72.3744 182.931 72.3904C182.754 72.3891 182.61 72.3931 182.498 72.4024L179.27 72.6725C178.774 72.8906 178.437 73.0873 178.259 73.2628C178.096 73.4209 178.022 73.5957 178.038 73.787C178.057 74.0103 178.174 74.161 178.389 74.2394C178.622 74.3323 178.931 74.3787 179.316 74.3786C179.717 74.3771 180.181 74.3544 180.707 74.3104ZM180.526 67.2449C181.036 67.2022 181.413 67.0101 181.658 66.6686C181.918 66.3257 182.025 65.8752 181.978 65.3171C181.932 64.7591 181.751 64.3246 181.436 64.0138C181.12 63.687 180.706 63.545 180.196 63.5877C179.702 63.629 179.318 63.8377 179.044 64.2139C178.785 64.5727 178.679 65.0311 178.726 65.5892C178.756 65.9559 178.847 66.2695 178.997 66.5299C179.147 66.7902 179.348 66.9822 179.599 67.1057C179.866 67.2278 180.175 67.2743 180.526 67.2449ZM199.859 72.6603C198.823 72.747 197.891 72.6403 197.063 72.3403C196.233 72.0243 195.518 71.5382 194.918 70.882C194.317 70.2258 193.84 69.4147 193.486 68.4488C193.131 67.467 192.902 66.3543 192.798 65.1106C192.648 63.3248 192.769 61.7894 193.159 60.5044C193.565 59.2181 194.228 58.2074 195.145 57.4723C196.063 56.7372 197.224 56.311 198.627 56.1937C200.014 56.0776 201.205 56.3071 202.201 56.8822C203.211 57.4399 204.007 58.3206 204.589 59.5243C205.186 60.7107 205.558 62.1808 205.704 63.9347C205.81 65.1943 205.761 66.3383 205.558 67.3669C205.371 68.394 205.028 69.2897 204.53 70.0539C204.047 70.8008 203.414 71.3996 202.633 71.8502C201.852 72.3009 200.927 72.5709 199.859 72.6603ZM199.721 69.565C200.151 69.529 200.51 69.4027 200.797 69.186C201.082 68.9534 201.304 68.6298 201.462 68.2152C201.619 67.7846 201.711 67.2551 201.739 66.6266C201.783 65.9968 201.77 65.2673 201.701 64.4382C201.602 63.2583 201.432 62.2851 201.192 61.5184C200.965 60.7346 200.652 60.1587 200.252 59.7907C199.868 59.4214 199.381 59.2615 198.791 59.3108C198.233 59.3575 197.787 59.5875 197.452 60.0009C197.133 60.4129 196.918 61.0089 196.807 61.7889C196.711 62.5675 196.712 63.5388 196.81 64.7028C196.88 65.5478 196.99 66.2852 197.139 66.915C197.287 67.5288 197.482 68.0423 197.725 68.4555C197.967 68.8527 198.249 69.1503 198.571 69.3482C198.907 69.5288 199.29 69.6011 199.721 69.565ZM207.121 68.8497L206.819 65.2383C207.512 64.3133 208.089 63.4382 208.55 62.6129C209.027 61.7863 209.426 60.9902 209.747 60.2248C210.068 59.4434 210.34 58.666 210.564 57.8926C210.803 57.1019 211.04 56.2873 211.275 55.4488L217.589 54.9207L218.91 70.7296L215.06 71.0517L213.98 58.1367L213.885 58.1447C213.684 59.0124 213.426 59.8609 213.11 60.6901C212.793 61.5034 212.441 62.2875 212.054 63.0423C211.666 63.7812 211.237 64.4995 210.765 65.1973L210.773 65.2929L220.459 64.4827L220.729 67.7115L207.121 68.8497ZM222.245 70.4507L221.913 66.4805L227.415 61.9983C227.731 61.7471 228.007 61.4912 228.242 61.2307C228.475 60.9543 228.669 60.6732 228.821 60.3875C228.974 60.1018 229.087 59.8194 229.16 59.5403C229.232 59.2453 229.255 58.9463 229.23 58.6434C229.199 58.2767 229.085 57.9651 228.887 57.7087C228.689 57.4524 228.424 57.2657 228.093 57.1489C227.778 57.0308 227.406 56.9897 226.975 57.0257C226.465 57.0684 226.05 57.1994 225.731 57.4187C225.429 57.6367 225.203 57.9125 225.054 58.2461C224.92 58.5623 224.844 58.9058 224.827 59.2766C224.824 59.63 224.862 59.9801 224.939 60.3269L221.274 60.2722C221.026 59.0406 221.089 57.9676 221.462 57.0533C221.834 56.1231 222.479 55.3868 223.397 54.8443C224.314 54.286 225.457 53.9495 226.829 53.8348C228.056 53.7321 229.117 53.8361 230.01 54.1467C230.917 54.4401 231.632 54.9262 232.155 55.605C232.677 56.2838 232.98 57.1255 233.064 58.13C233.125 58.8634 233.069 59.5345 232.895 60.1431C232.737 60.7504 232.479 61.3098 232.12 61.8215C231.778 62.3318 231.361 62.8163 230.869 63.2749C230.394 63.7321 229.869 64.1774 229.295 64.6107L226.419 66.802L226.427 66.8977L233.933 66.2217L234.203 69.4504L222.245 70.4507ZM252.527 68.279C251.666 68.351 250.804 68.2224 249.942 67.8932C249.079 67.5639 248.238 67.0964 247.416 66.4908C246.611 65.8838 245.854 65.1845 245.146 64.3928C244.453 63.5997 243.83 62.7688 243.275 61.9C242.737 61.0298 242.304 60.1749 241.977 59.3353C241.65 58.4956 241.457 57.725 241.399 57.0234C241.333 56.2422 241.441 55.5107 241.721 54.8289C242.016 54.1299 242.505 53.5431 243.187 53.0686C243.886 52.5927 244.802 52.3074 245.934 52.2127C247.002 52.1233 247.894 52.2333 248.611 52.5427C249.325 52.8361 249.874 53.2479 250.255 53.7779C250.651 54.2907 250.874 54.8421 250.923 55.432C250.977 56.0698 250.837 56.6996 250.503 57.3216C250.17 57.9435 249.656 58.5244 248.963 59.064C248.268 59.5878 247.399 60.0378 246.354 60.4142L245.744 59.1647C246.286 58.734 246.722 58.2801 247.051 57.803C247.397 57.3245 247.547 56.8222 247.503 56.2961C247.477 55.9772 247.366 55.7135 247.172 55.5049C246.993 55.2791 246.704 55.1828 246.305 55.2162C246.034 55.2388 245.816 55.3213 245.652 55.4635C245.487 55.6057 245.373 55.7838 245.311 55.9978C245.263 56.1944 245.249 56.4044 245.267 56.6276C245.298 56.9943 245.426 57.4653 245.65 58.0406C245.89 58.5986 246.189 59.2077 246.55 59.868C246.924 60.511 247.339 61.1506 247.794 61.787C248.248 62.4233 248.714 63.0025 249.191 63.5245C249.667 64.0306 250.134 64.4331 250.593 64.7319C251.051 65.0307 251.464 65.1648 251.831 65.1341C252.102 65.1115 252.286 65.0157 252.385 64.847C252.482 64.6622 252.522 64.4742 252.506 64.2829C252.483 64.0118 252.347 63.7262 252.097 63.426C251.846 63.1098 251.462 62.8369 250.945 62.6072C250.428 62.3774 249.753 62.2733 248.92 62.2949L248.704 59.7119L254.707 59.2098L254.939 61.9841L250.821 61.7023L250.839 61.9176C252.361 62.0633 253.535 62.3745 254.361 62.8513C255.202 63.3107 255.666 64.0587 255.753 65.0951C255.804 65.7009 255.725 66.2052 255.518 66.6079C255.311 67.0106 255.033 67.3309 254.683 67.5688C254.334 67.8068 253.963 67.9743 253.569 68.0714C253.177 68.1845 252.83 68.2537 252.527 68.279ZM243.869 69.0032C243.104 69.0672 242.406 68.9811 241.776 68.7447C241.147 68.5084 240.634 68.1339 240.237 67.6211C239.856 67.0911 239.632 66.4274 239.565 65.6302C239.505 64.9127 239.581 64.2802 239.792 63.7327C240.019 63.1839 240.317 62.7174 240.687 62.3333C241.054 61.9332 241.437 61.6122 241.834 61.3702C242.246 61.111 242.608 60.9202 242.918 60.7979L243.694 62.0095C243.496 62.3311 243.341 62.6892 243.23 63.0839C243.117 63.4626 243.076 63.8353 243.107 64.2021C243.149 64.7123 243.314 65.148 243.601 65.5094C243.903 65.8534 244.278 66.1111 244.726 66.2824C245.172 66.4377 245.642 66.4947 246.137 66.4533C246.36 66.4347 246.549 66.3947 246.705 66.3336C246.859 66.2564 247.019 66.1548 247.185 66.0285L247.486 66.4609L247.295 66.4769C247.188 66.9353 246.982 67.346 246.675 67.7088C246.384 68.0703 245.999 68.3594 245.519 68.5762C245.057 68.8075 244.507 68.9499 243.869 69.0032ZM268.271 66.938C267.155 67.0314 266.164 66.9858 265.298 66.8014C264.447 66.6157 263.723 66.307 263.125 65.8753C262.527 65.4436 262.064 64.9043 261.737 64.2573C261.425 63.5931 261.25 62.845 261.213 62.0133L264.734 60.9239C264.827 61.6547 265.029 62.24 265.338 62.6797C265.663 63.1021 266.073 63.4049 266.57 63.5881C267.066 63.7554 267.609 63.8144 268.199 63.765C268.677 63.725 269.095 63.6339 269.452 63.4916C269.808 63.3334 270.081 63.1419 270.271 62.9173C270.476 62.6754 270.566 62.411 270.542 62.124C270.51 61.7413 270.341 61.4424 270.034 61.2273C269.725 60.9961 269.309 60.8142 268.784 60.6815C268.275 60.5475 267.694 60.4194 267.042 60.2974C266.34 60.1634 265.637 60.0135 264.933 59.8476C264.243 59.6645 263.605 59.4208 263.018 59.1167C262.43 58.8126 261.938 58.3962 261.54 57.8675C261.159 57.3375 260.934 56.6579 260.864 55.8288C260.779 54.8083 260.961 53.918 261.412 53.1579C261.878 52.3963 262.55 51.7942 263.428 51.3515C264.321 50.8915 265.357 50.6121 266.537 50.5134C267.781 50.4094 268.907 50.532 269.916 50.8811C270.923 51.2143 271.723 51.7655 272.318 52.5346C272.912 53.3038 273.202 54.283 273.189 55.4722L269.698 56.3423C269.674 55.8626 269.59 55.4441 269.448 55.0867C269.306 54.7293 269.105 54.4331 268.844 54.198C268.6 53.9615 268.297 53.7942 267.935 53.696C267.572 53.5818 267.152 53.5447 266.673 53.5847C266.179 53.6261 265.77 53.7245 265.446 53.8801C265.138 54.0343 264.905 54.2304 264.748 54.4683C264.608 54.7048 264.549 54.9666 264.573 55.2536C264.601 55.5885 264.752 55.8568 265.026 56.0587C265.3 56.2606 265.683 56.4292 266.176 56.5646C266.668 56.684 267.248 56.8041 267.916 56.9248C268.618 57.0588 269.321 57.2167 270.027 57.3985C270.747 57.5631 271.418 57.812 272.04 58.1453C272.661 58.4627 273.171 58.9017 273.571 59.4623C273.987 60.0215 274.233 60.7556 274.309 61.6644C274.397 62.7167 274.191 63.617 273.692 64.3653C273.208 65.1122 272.495 65.7017 271.552 66.1338C270.624 66.5646 269.531 66.8327 268.271 66.938ZM281.855 65.8018C280.643 65.9032 279.547 65.7541 278.566 65.3544C277.584 64.9388 276.79 64.2667 276.182 63.3381C275.573 62.3936 275.207 61.1799 275.083 59.6971C274.954 58.1505 275.119 56.8682 275.58 55.8502C276.056 54.815 276.744 54.0269 277.646 53.4858C278.563 52.9274 279.619 52.5982 280.815 52.4982C282.059 52.3942 283.164 52.5506 284.13 52.9676C285.11 53.3672 285.897 54.04 286.49 54.9859C287.098 55.9145 287.464 57.1281 287.589 58.6269C287.719 60.1735 287.545 61.4644 287.07 62.4997C286.609 63.5176 285.92 64.2978 285.002 64.8402C284.1 65.3813 283.051 65.7018 281.855 65.8018ZM281.713 62.9478C282.207 62.9064 282.61 62.7362 282.922 62.4372C283.233 62.1222 283.454 61.6863 283.584 61.1295C283.714 60.5727 283.748 59.9196 283.685 59.1702C283.616 58.3411 283.462 57.6555 283.224 57.1135C282.985 56.5555 282.669 56.1404 282.277 55.8681C281.901 55.5945 281.458 55.479 280.947 55.5217C280.469 55.5617 280.075 55.7392 279.764 56.0542C279.452 56.3533 279.23 56.7812 279.1 57.338C278.97 57.8948 278.937 58.5558 279.001 59.3212C279.103 60.5329 279.388 61.4563 279.859 62.0913C280.345 62.725 280.963 63.0104 281.713 62.9478ZM293.464 64.8309C292.092 64.9455 291.032 64.5526 290.282 63.6519C289.549 62.7499 289.099 61.3104 288.934 59.3333L288.338 52.2061L292.213 51.8821L292.804 58.9614C292.882 59.8862 293.063 60.5212 293.349 60.8666C293.651 61.2107 294.049 61.362 294.543 61.3207C294.894 61.2913 295.205 61.177 295.478 60.9776C295.765 60.7609 296.004 60.4599 296.197 60.0745C296.388 59.6731 296.515 59.1728 296.577 58.5736C296.655 57.9729 296.66 57.2581 296.591 56.429L296.183 51.55L300.057 51.2259L300.637 58.1617L301.113 63.8539L297.812 64.1299L297.401 59.2031L297.233 59.2171C297.24 60.4528 297.109 61.4753 296.839 62.2846C296.568 63.078 296.153 63.6827 295.594 64.0987C295.035 64.5148 294.325 64.7588 293.464 64.8309ZM307.897 63.5755C306.414 63.6995 305.274 63.4175 304.478 62.7294C303.697 62.0241 303.239 60.8742 303.106 59.2798L302.668 54.0421L301.281 54.1581L301.077 51.7186L301.149 51.7126C302.127 51.5024 302.801 51.1168 303.172 50.556C303.541 49.9792 303.728 49.1447 303.733 48.0525L303.729 48.0046L306.001 47.8146L306.243 50.7085L309.137 50.4665L309.397 53.5756L306.503 53.8177L306.903 58.601C306.953 59.2069 307.133 59.6254 307.441 59.8565C307.765 60.0862 308.143 60.1831 308.573 60.1471C308.797 60.1284 309.025 60.0772 309.259 59.9934C309.493 59.9097 309.709 59.8033 309.907 59.6743L310.189 63.0466C309.706 63.2314 309.275 63.3558 308.895 63.4197C308.516 63.4995 308.184 63.5515 307.897 63.5755ZM311.631 62.9741L311.074 56.3013L310.232 46.2324L314.106 45.9084L314.37 49.0654C314.398 49.4002 314.412 49.8486 314.411 50.4107C314.424 50.9555 314.417 51.5421 314.389 52.1706C314.377 52.7978 314.356 53.4017 314.324 53.9824C314.307 54.5457 314.29 55.0208 314.274 55.4074L314.49 55.3894C314.522 54.054 314.68 52.9571 314.961 52.0987C315.241 51.2243 315.668 50.5704 316.242 50.1371C316.815 49.6878 317.531 49.4271 318.392 49.3551C319.748 49.2418 320.793 49.644 321.528 50.562C322.262 51.464 322.71 52.8876 322.872 54.8328L323.47 61.9838L319.596 62.3079L319.012 55.3243C318.937 54.4314 318.763 53.7877 318.489 53.3931C318.215 52.9986 317.807 52.824 317.265 52.8693C316.787 52.9093 316.372 53.1287 316.02 53.5274C315.666 53.9102 315.403 54.5022 315.229 55.3035C315.071 56.1034 315.044 57.1253 315.148 58.3689L315.506 62.65L311.631 62.9741ZM330.015 61.4364L328.695 45.6515L332.57 45.3274L333.889 61.1123L330.015 61.4364ZM332.909 61.1944L332.639 57.9656L341.033 57.2635L341.303 60.4922L332.909 61.1944ZM332.365 54.689L332.123 51.7951L339.418 51.185L339.659 54.0789L332.365 54.689ZM331.859 48.6381L331.589 45.4094L339.984 44.7072L340.254 47.936L331.859 48.6381ZM346.094 60.4287C345.456 60.482 344.841 60.4211 344.248 60.2459C343.656 60.0707 343.155 59.7513 342.747 59.2876C342.338 58.8081 342.098 58.1458 342.027 57.3007C341.962 56.5195 342.061 55.877 342.324 55.3733C342.585 54.8537 342.959 54.4291 343.445 54.0994C343.93 53.7538 344.47 53.4839 345.064 53.2897C345.656 53.0796 346.243 52.894 346.823 52.7331C347.639 52.5043 348.25 52.3247 348.657 52.1944C349.063 52.064 349.333 51.9291 349.466 51.7895C349.615 51.6486 349.68 51.4666 349.661 51.2434C349.623 50.781 349.418 50.4449 349.047 50.235C348.692 50.0239 348.236 49.9416 347.678 49.9883C347.327 50.0177 346.982 50.1108 346.641 50.2677C346.301 50.4246 346.034 50.6798 345.838 51.0333C345.642 51.3708 345.577 51.8419 345.643 52.4464L342.179 52.4953C342.064 51.4935 342.146 50.6517 342.426 49.97C342.705 49.2723 343.116 48.7161 343.659 48.3014C344.217 47.8694 344.832 47.545 345.505 47.3282C346.193 47.1101 346.88 46.9723 347.565 46.915C348.825 46.8096 349.881 46.9621 350.734 47.3724C351.586 47.7668 352.241 48.3944 352.698 49.2553C353.17 50.0989 353.459 51.1505 353.564 52.4101L353.752 54.6583C353.796 55.1844 353.84 55.7186 353.886 56.2607C353.93 56.7869 353.974 57.313 354.018 57.8392C354.062 58.3653 354.106 58.8915 354.15 59.4177L350.801 59.6977C350.753 59.1237 350.705 58.5418 350.655 57.9518C350.606 57.3619 350.554 56.7401 350.5 56.0863L350.356 56.0983C350.352 56.8212 350.168 57.5029 349.804 58.1434C349.455 58.7667 348.961 59.2897 348.322 59.7125C347.698 60.1179 346.955 60.3566 346.094 60.4287ZM347.46 57.4725C347.731 57.4498 348.014 57.378 348.309 57.257C348.619 57.1187 348.899 56.9186 349.15 56.6568C349.417 56.3936 349.621 56.0474 349.762 55.6182C349.901 55.173 349.945 54.6395 349.893 54.0177L349.845 53.4437L350.485 53.3179C350.375 53.5359 350.173 53.7213 349.881 53.8742C349.605 54.0257 349.287 54.1567 348.927 54.2671C348.565 54.3616 348.196 54.4647 347.82 54.5764C347.459 54.6708 347.124 54.7952 346.816 54.9494C346.506 55.0877 346.257 55.2691 346.067 55.4938C345.891 55.7011 345.818 55.9801 345.848 56.3309C345.882 56.7455 346.053 57.0524 346.358 57.2516C346.678 57.4335 347.046 57.5072 347.46 57.4725ZM361.28 59.1584C360.435 59.2291 359.639 59.2074 358.89 59.0934C358.16 58.994 357.508 58.7836 356.935 58.4622C356.378 58.1395 355.931 57.6872 355.593 57.1053C355.27 56.5061 355.096 55.7661 355.071 54.8851L358.419 54.3161C358.495 54.8396 358.651 55.268 358.888 55.6015C359.123 55.919 359.43 56.1421 359.81 56.2709C360.191 56.3997 360.644 56.442 361.17 56.398C361.664 56.3567 362.08 56.2416 362.417 56.0528C362.769 55.8468 362.929 55.5444 362.896 55.1458C362.878 54.9385 362.8 54.7765 362.662 54.6596C362.523 54.5268 362.273 54.4192 361.913 54.3369C361.567 54.2374 361.061 54.1352 360.394 54.0305C359.563 53.8912 358.813 53.7453 358.142 53.5927C357.471 53.4401 356.892 53.2396 356.405 52.9913C355.919 52.743 355.539 52.4215 355.265 52.027C354.99 51.6165 354.826 51.1003 354.774 50.4785C354.701 49.6015 354.87 48.8408 355.282 48.1962C355.708 47.5344 356.323 47.0094 357.125 46.6211C357.926 46.2169 358.869 45.9695 359.953 45.8788C360.926 45.7975 361.847 45.8729 362.718 46.1052C363.588 46.3374 364.291 46.7764 364.827 47.422C365.378 48.0662 365.638 48.9597 365.605 50.1024L362.33 50.6894C362.339 50.223 362.243 49.8377 362.041 49.5335C361.838 49.2134 361.562 48.9876 361.214 48.8561C360.864 48.7087 360.45 48.6551 359.972 48.6951C359.43 48.7404 359.016 48.8794 358.73 49.112C358.459 49.3273 358.337 49.5865 358.362 49.8894C358.382 50.1286 358.487 50.3285 358.677 50.4892C358.882 50.6327 359.181 50.7522 359.574 50.8477C359.982 50.926 360.503 51.0109 361.137 51.1024C361.688 51.1686 362.266 51.2648 362.871 51.3908C363.475 51.5169 364.045 51.71 364.581 51.9703C365.115 52.2146 365.562 52.5626 365.92 53.0143C366.279 53.4659 366.489 54.0585 366.551 54.7919C366.616 55.5732 366.458 56.2768 366.077 56.9028C365.696 57.5287 365.104 58.0358 364.301 58.424C363.499 58.8123 362.492 59.0571 361.28 59.1584ZM373.153 58.1172C371.67 58.2412 370.531 57.9592 369.735 57.2712C368.953 56.5658 368.496 55.416 368.363 53.8215L367.925 48.5838L366.538 48.6998L366.334 46.2603L366.405 46.2543C367.383 46.0441 368.058 45.6585 368.428 45.0977C368.797 44.5209 368.985 43.6864 368.99 42.5942L368.986 42.5464L371.258 42.3563L371.5 45.2502L374.393 45.0082L374.653 48.1173L371.759 48.3594L372.159 53.1427C372.21 53.7486 372.389 54.1671 372.698 54.3982C373.022 54.628 373.399 54.7248 373.83 54.6888C374.053 54.6702 374.282 54.6189 374.515 54.5351C374.749 54.4514 374.965 54.345 375.163 54.2161L375.445 57.5883C374.963 57.7731 374.532 57.8975 374.152 57.9614C373.773 58.0412 373.44 58.0932 373.153 58.1172ZM388.758 56.8601C387.641 56.9535 386.622 56.8621 385.7 56.586C384.778 56.3099 383.977 55.8551 383.298 55.2215C382.619 54.5879 382.069 53.7749 381.649 52.7824C381.245 51.7887 380.988 50.6301 380.877 49.3067C380.72 47.4253 380.893 45.8533 381.398 44.5909C381.917 43.3111 382.701 42.3223 383.751 41.6244C384.816 40.9252 386.075 40.5149 387.526 40.3935C388.642 40.3002 389.653 40.3922 390.559 40.6696C391.48 40.9298 392.28 41.3766 392.959 42.0102C393.638 42.6438 394.181 43.4655 394.586 44.4752C395.006 45.4676 395.273 46.6415 395.386 47.9968C395.501 49.368 395.426 50.5864 395.162 51.6522C394.914 52.7166 394.491 53.6189 393.895 54.3592C393.315 55.0981 392.585 55.681 391.705 56.1078C390.84 56.5173 389.858 56.7681 388.758 56.8601ZM388.635 53.6672C389.353 53.6072 389.928 53.3825 390.361 52.993C390.809 52.5863 391.114 52.0148 391.277 51.2787C391.455 50.5252 391.498 49.5984 391.406 48.4983C391.309 47.3343 391.101 46.3803 390.782 45.6364C390.479 44.891 390.064 44.3477 389.538 44.0064C389.026 43.6478 388.403 43.4991 387.67 43.5605C386.968 43.6192 386.394 43.8599 385.948 44.2825C385.5 44.6893 385.188 45.2773 385.012 46.0467C384.835 46.8161 384.794 47.7589 384.887 48.875C384.958 49.72 385.083 50.4561 385.264 51.0832C385.461 51.709 385.713 52.2258 386.02 52.6336C386.342 53.0241 386.718 53.3057 387.15 53.4783C387.582 53.6509 388.077 53.7139 388.635 53.6672ZM397.605 55.7829L397.007 48.6319L396.549 43.155L399.826 42.8809L400.255 48.023L400.447 48.007C400.438 46.7553 400.56 45.7175 400.813 44.8937C401.064 44.0538 401.467 43.4099 402.024 42.962C402.581 42.514 403.313 42.252 404.222 42.176C405.593 42.0613 406.66 42.4297 407.421 43.2812C408.199 44.1313 408.663 45.4573 408.814 47.259L409.443 54.7927L405.569 55.1168L404.981 48.0853C404.909 47.2243 404.72 46.5899 404.413 46.1821C404.121 45.7729 403.689 45.5923 403.115 45.6404C402.637 45.6804 402.228 45.8831 401.889 46.2486C401.551 46.6141 401.309 47.1802 401.164 47.947C401.02 48.7137 401 49.7269 401.105 50.9865L401.479 55.4589L397.605 55.7829ZM417.113 54.4884C415.981 54.583 414.995 54.497 414.153 54.2302C413.311 53.9474 412.609 53.5244 412.048 52.9612C411.487 52.398 411.055 51.7358 410.75 50.9745C410.446 50.2132 410.257 49.3941 410.184 48.5172C410.109 47.6243 410.158 46.7692 410.331 45.952C410.502 45.1188 410.808 44.3627 411.249 43.6836C411.704 42.9872 412.315 42.4223 413.082 41.9889C413.864 41.5541 414.822 41.2894 415.954 41.1947C417.293 41.0827 418.391 41.2478 419.246 41.69C420.117 42.1149 420.745 42.7127 421.13 43.4832C421.532 44.2524 421.7 45.1054 421.633 46.0422L418.307 46.5853C418.291 46.0087 418.188 45.5437 417.998 45.1903C417.822 44.8196 417.576 44.5593 417.258 44.4092C416.939 44.2432 416.564 44.1782 416.134 44.2142C415.751 44.2462 415.414 44.3467 415.124 44.5155C414.849 44.683 414.62 44.9269 414.438 45.2472C414.271 45.5502 414.15 45.9296 414.076 46.3853C414.017 46.8398 414.014 47.3779 414.066 47.9998C414.133 48.797 414.278 49.4753 414.501 50.0346C414.74 50.5926 415.056 51.0077 415.448 51.28C415.856 51.5509 416.347 51.6624 416.921 51.6144C417.511 51.565 417.945 51.3842 418.224 51.0718C418.503 50.7595 418.673 50.3841 418.732 49.9456C418.791 49.4911 418.77 49.0513 418.67 48.6262L422.248 48.4955C422.402 49.1891 422.428 49.8773 422.324 50.5603C422.219 51.2274 421.958 51.8433 421.539 52.4082C421.137 52.9717 420.566 53.4369 419.826 53.8039C419.102 54.1695 418.197 54.3977 417.113 54.4884ZM423.927 53.5813L423.369 46.9085L422.527 36.8397L426.402 36.5156L426.666 39.6726C426.694 40.0074 426.707 40.4558 426.706 41.0179C426.719 41.5627 426.712 42.1493 426.684 42.7778C426.673 43.405 426.651 44.0089 426.619 44.5896C426.602 45.1529 426.586 45.628 426.57 46.0146L426.785 45.9966C426.818 44.6613 426.975 43.5643 427.256 42.7059C427.537 41.8315 427.964 41.1776 428.537 40.7443C429.11 40.295 429.827 40.0343 430.688 39.9623C432.043 39.849 433.088 40.2512 433.823 41.1692C434.557 42.0712 435.005 43.4948 435.168 45.44L435.765 52.591L431.891 52.9151L431.307 45.9315C431.233 45.0386 431.058 44.3949 430.785 44.0003C430.511 43.6058 430.103 43.4312 429.561 43.4765C429.082 43.5165 428.667 43.7359 428.315 44.1346C427.962 44.5174 427.698 45.1094 427.524 45.9107C427.366 46.7107 427.339 47.7325 427.443 48.9761L427.801 53.2572L423.927 53.5813ZM440.732 52.5128C440.094 52.5661 439.479 52.5052 438.887 52.33C438.294 52.1548 437.794 51.8354 437.386 51.3718C436.976 50.8922 436.736 50.2299 436.665 49.3849C436.6 48.6036 436.699 47.9611 436.962 47.4574C437.224 46.9378 437.598 46.5132 438.084 46.1835C438.569 45.8379 439.108 45.568 439.702 45.3738C440.294 45.1637 440.881 44.9781 441.462 44.8172C442.277 44.5884 442.889 44.4088 443.295 44.2785C443.702 44.1481 443.971 44.0132 444.104 43.8736C444.253 43.7327 444.318 43.5507 444.299 43.3275C444.261 42.8651 444.056 42.529 443.685 42.3191C443.33 42.108 442.874 42.0257 442.316 42.0724C441.965 42.1018 441.62 42.1949 441.28 42.3518C440.94 42.5087 440.672 42.7639 440.477 43.1174C440.28 43.4549 440.215 43.926 440.282 44.5305L436.818 44.5794C436.702 43.5776 436.784 42.7358 437.064 42.0541C437.343 41.3564 437.754 40.8002 438.298 40.3855C438.855 39.9535 439.471 39.6291 440.143 39.4123C440.831 39.1942 441.518 39.0564 442.204 38.9991C443.463 38.8937 444.52 39.0462 445.373 39.4565C446.225 39.8509 446.879 40.4785 447.336 41.3394C447.808 42.183 448.097 43.2346 448.202 44.4942L448.39 46.7424C448.434 47.2685 448.479 47.8027 448.524 48.3448C448.568 48.871 448.612 49.3971 448.656 49.9233C448.7 50.4495 448.744 50.9756 448.788 51.5018L445.44 51.7818C445.392 51.2079 445.343 50.6259 445.294 50.0359C445.244 49.446 445.192 48.8242 445.138 48.1704L444.994 48.1824C444.99 48.9053 444.807 49.587 444.443 50.2275C444.093 50.8508 443.599 51.3738 442.96 51.7966C442.336 52.202 441.593 52.4408 440.732 52.5128ZM442.099 49.5566C442.37 49.5339 442.653 49.4621 442.948 49.3411C443.257 49.2028 443.538 49.0027 443.789 48.7409C444.056 48.4777 444.259 48.1315 444.4 47.7023C444.54 47.2571 444.583 46.7236 444.531 46.1018L444.483 45.5278L445.123 45.402C445.013 45.62 444.812 45.8054 444.519 45.9583C444.243 46.1099 443.925 46.2408 443.565 46.3512C443.203 46.4457 442.835 46.5488 442.459 46.6605C442.097 46.755 441.762 46.8793 441.454 47.0335C441.145 47.1718 440.895 47.3533 440.705 47.5779C440.53 47.7852 440.457 48.0643 440.486 48.415C440.521 48.8296 440.691 49.1365 440.996 49.3357C441.317 49.5176 441.684 49.5913 442.099 49.5566ZM450.366 51.3698L449.31 38.7419L453.185 38.4178L454.24 51.0457L450.366 51.3698ZM451.147 37.673C450.414 37.7343 449.835 37.6302 449.411 37.3606C449.002 37.0737 448.773 36.6353 448.723 36.0454C448.673 35.4395 448.826 34.9691 449.184 34.6341C449.555 34.2819 450.108 34.0751 450.842 34.0138C451.591 33.9511 452.17 34.0632 452.58 34.3501C453.005 34.6356 453.242 35.0733 453.292 35.6633C453.339 36.2373 453.178 36.7004 452.806 37.0526C452.45 37.4035 451.897 37.6103 451.147 37.673ZM455.971 50.901L455.373 43.7499L454.916 38.273L458.192 37.9989L458.622 43.141L458.813 43.125C458.805 41.8733 458.927 40.8356 459.179 40.0117C459.43 39.1718 459.834 38.5279 460.39 38.08C460.947 37.632 461.68 37.37 462.589 37.294C463.96 37.1793 465.026 37.5477 465.788 38.3992C466.565 39.2494 467.029 40.5753 467.18 42.377L467.81 49.9107L463.935 50.2348L463.348 43.2033C463.276 42.3423 463.086 41.7079 462.779 41.3001C462.488 40.8909 462.055 40.7104 461.481 40.7584C461.003 40.7984 460.595 41.0011 460.256 41.3666C459.917 41.7321 459.675 42.2983 459.531 43.065C459.386 43.8317 459.366 44.8449 459.472 46.1045L459.846 50.5769L455.971 50.901Z" fill="#1E1E1E"/>
</svg>
