<svg width="247" height="69" viewBox="0 0 247 69" fill="none" xmlns="http://www.w3.org/2000/svg">
<path d="M4.0578 46.3818V13.8533H10.3171V46.3818H4.0578ZM8.09923 46.3818V41.2561H28.3557V46.3818H8.09923ZM8.09923 32.2368V27.5054H25.9407V32.2368H8.09923ZM8.09923 18.979V13.8533H28.2571V18.979H8.09923ZM42.7174 46.9733C39.9903 46.9733 37.986 46.2504 36.7046 44.8047C35.4232 43.3261 34.7824 41.0426 34.7824 37.954V25.5833H30.9874L31.086 20.6547H33.5996C34.5524 20.6547 35.2589 20.5068 35.7189 20.2111C36.1789 19.9154 36.4582 19.3897 36.5567 18.634L37.1482 14.8883H40.746V20.6054H47.5474V25.7804H40.746V37.7075C40.746 38.9233 41.0253 39.8104 41.5839 40.369C42.1753 40.9276 43.046 41.2068 44.196 41.2068C44.8203 41.2068 45.4282 41.1411 46.0196 41.0097C46.6439 40.8454 47.2189 40.5826 47.7446 40.2211V46.1354C46.726 46.464 45.7896 46.6776 44.9353 46.7761C44.1139 46.9076 43.3746 46.9733 42.7174 46.9733ZM52.8541 46.3818V30.364V11.389H59.1134V19.4225C59.1134 20.1125 59.0806 20.819 59.0148 21.5418C58.982 22.2647 58.9163 23.004 58.8177 23.7597C58.7191 24.5154 58.6041 25.2711 58.4727 26.0268C58.3741 26.7825 58.2591 27.5383 58.1277 28.294H59.1627C59.6227 26.5197 60.2141 25.0247 60.937 23.809C61.6598 22.5604 62.5798 21.6075 63.697 20.9504C64.847 20.2933 66.2434 19.9647 67.8863 19.9647C70.8763 19.9647 73.1105 21.0161 74.5891 23.119C76.0677 25.189 76.807 28.3433 76.807 32.5818V46.3818H70.5477V33.469C70.5477 30.6433 70.1205 28.5568 69.2663 27.2097C68.4448 25.8625 67.1963 25.189 65.5205 25.189C64.1406 25.189 62.9906 25.6161 62.0706 26.4704C61.1505 27.2918 60.4441 28.3926 59.9513 29.7725C59.4584 31.1525 59.1627 32.7133 59.0641 34.4547V46.3818H52.8541ZM81.6381 36.0811V30.4625H95.586V36.0811H81.6381ZM100.945 46.3818V13.8533H107.204V46.3818H100.945ZM104.986 46.3818V41.2561H125.243V46.3818H104.986ZM104.986 32.2368V27.5054H122.828V32.2368H104.986ZM104.986 18.979V13.8533H125.144V18.979H104.986ZM130.2 46.3818V30.6597V20.6054H135.375L135.227 28.4911H136.114C136.574 26.5525 137.182 24.959 137.938 23.7104C138.726 22.4618 139.729 21.5254 140.944 20.9011C142.16 20.2768 143.573 19.9647 145.183 19.9647C148.107 19.9647 150.325 20.9997 151.836 23.0697C153.381 25.1397 154.153 28.3433 154.153 32.6804V46.3818H147.894V33.3211C147.894 30.5283 147.466 28.4911 146.612 27.2097C145.791 25.8954 144.559 25.2383 142.916 25.2383C141.536 25.2383 140.369 25.6818 139.416 26.569C138.464 27.4233 137.724 28.5733 137.199 30.019C136.706 31.4318 136.443 32.9926 136.41 34.7011V46.3818H130.2ZM169.241 47.0226C166.284 47.0226 164.05 46.0204 162.538 44.0161C161.06 41.979 160.32 38.9068 160.32 34.7997V20.6054H166.58V34.1097C166.58 36.7054 166.974 38.644 167.763 39.9254C168.551 41.2068 169.767 41.8475 171.41 41.8475C172.363 41.8475 173.2 41.6175 173.923 41.1576C174.646 40.6647 175.27 39.9911 175.796 39.1368C176.322 38.2497 176.733 37.2311 177.028 36.0811C177.357 34.9311 177.554 33.6661 177.62 32.2861V20.6054H183.83V35.7854V46.3818H178.704L178.803 38.2497H177.915C177.488 40.3197 176.88 41.9954 176.092 43.2768C175.336 44.5583 174.4 45.5111 173.283 46.1354C172.165 46.7268 170.818 47.0226 169.241 47.0226ZM200.85 55.2533C198.057 55.2533 195.757 55.0397 193.95 54.6126C192.175 54.1854 190.861 53.5447 190.007 52.6904C189.152 51.8361 188.725 50.7847 188.725 49.5361C188.725 48.0247 189.317 46.7926 190.5 45.8397C191.715 44.854 193.506 44.2461 195.872 44.0161V43.0304C194.097 43.0633 192.75 42.8826 191.83 42.4883C190.91 42.0611 190.45 41.3876 190.45 40.4676C190.45 39.5804 190.894 38.7918 191.781 38.1018C192.701 37.4118 194.212 36.8368 196.315 36.3768V35.3911C194.311 35.2926 192.75 34.6683 191.633 33.5183C190.516 32.3354 189.957 30.8075 189.957 28.9347C189.957 27.259 190.417 25.7804 191.337 24.499C192.257 23.2175 193.605 22.2154 195.379 21.4926C197.186 20.7368 199.371 20.359 201.934 20.359H214.699V25.2875L206.616 24.1047V25.189C208.653 25.5176 210.148 26.0925 211.101 26.914C212.087 27.7354 212.58 28.8526 212.58 30.2654C212.58 31.6125 212.152 32.8118 211.298 33.8633C210.444 34.8818 209.195 35.6868 207.552 36.2783C205.942 36.8368 203.987 37.1161 201.687 37.1161C201.26 37.1161 200.8 37.0997 200.307 37.0668C199.815 37.034 199.042 36.9518 197.991 36.8204C197.301 37.3133 196.742 37.7568 196.315 38.1511C195.888 38.5126 195.675 38.8576 195.675 39.1861C195.675 39.449 195.839 39.679 196.167 39.8761C196.496 40.0404 196.923 40.1554 197.449 40.2211C197.975 40.2868 198.484 40.3197 198.977 40.3197H205.827C206.485 40.3197 207.322 40.369 208.341 40.4676C209.392 40.5661 210.427 40.829 211.446 41.2561C212.497 41.6833 213.368 42.3568 214.058 43.2768C214.781 44.1968 215.142 45.4947 215.142 47.1704C215.142 49.0433 214.6 50.5711 213.516 51.754C212.465 52.9697 210.871 53.8568 208.735 54.4154C206.632 54.974 204.004 55.2533 200.85 55.2533ZM201.392 50.2261C203.429 50.2261 205.055 50.1111 206.271 49.8811C207.487 49.6511 208.357 49.2733 208.883 48.7476C209.409 48.2547 209.672 47.614 209.672 46.8254C209.672 46.1026 209.507 45.544 209.179 45.1497C208.85 44.7226 208.423 44.4268 207.897 44.2626C207.405 44.0983 206.895 43.9997 206.37 43.9668C205.844 43.934 205.4 43.9176 205.039 43.9176H198.977C197.4 44.1476 196.282 44.5911 195.625 45.2483C195.001 45.9054 194.689 46.6283 194.689 47.4168C194.689 48.2054 194.952 48.7968 195.477 49.1911C196.003 49.6183 196.759 49.8976 197.745 50.029C198.763 50.1604 199.979 50.2261 201.392 50.2261ZM201.54 33.7154C203.248 33.7154 204.546 33.3211 205.433 32.5325C206.32 31.7111 206.764 30.6433 206.764 29.329C206.764 27.9161 206.304 26.7661 205.384 25.879C204.497 24.959 203.199 24.499 201.49 24.499C199.782 24.499 198.451 24.9425 197.498 25.8297C196.578 26.7168 196.118 27.8504 196.118 29.2304C196.118 30.1175 196.315 30.9061 196.71 31.5961C197.137 32.2533 197.745 32.779 198.533 33.1733C199.355 33.5347 200.357 33.7154 201.54 33.7154ZM228.682 47.0226C225.725 47.0226 223.491 46.0204 221.98 44.0161C220.501 41.979 219.762 38.9068 219.762 34.7997V20.6054H226.021V34.1097C226.021 36.7054 226.415 38.644 227.204 39.9254C227.992 41.2068 229.208 41.8475 230.851 41.8475C231.804 41.8475 232.642 41.6175 233.365 41.1576C234.087 40.6647 234.712 39.9911 235.237 39.1368C235.763 38.2497 236.174 37.2311 236.47 36.0811C236.798 34.9311 236.995 33.6661 237.061 32.2861V20.6054H243.271V35.7854V46.3818H238.145L238.244 38.2497H237.357C236.93 40.3197 236.322 41.9954 235.533 43.2768C234.777 44.5583 233.841 45.5111 232.724 46.1354C231.607 46.7268 230.26 47.0226 228.682 47.0226Z" fill="#F5AF56"/>
<path d="M52.2342 65.9541C51.6374 66.1033 51.2745 66.708 51.4237 67.3048C51.5729 67.9017 52.1777 68.2645 52.7745 68.1154L52.2342 65.9541ZM183.91 63.4429L179.243 55.6372L171.437 60.3048L176.104 68.1105L183.91 63.4429ZM52.5044 67.0347L52.7745 68.1154C64.8961 65.0853 85.709 61.1843 108.684 59.3496C131.673 57.5139 156.736 57.755 177.402 62.9541L177.674 61.8739L177.945 60.7936C156.936 55.5082 131.594 55.2853 108.507 57.1289C85.4054 58.9736 64.4711 62.8952 52.2342 65.9541L52.5044 67.0347Z" fill="#F5AF56"/>
</svg>
