<svg width="16" height="17" viewBox="0 0 16 17" fill="none" xmlns="http://www.w3.org/2000/svg">
<g clip-path="url(#clip0_425_6607)">
<path d="M9.5 3C9.5 2.173 8.827 1.5 8 1.5C7.173 1.5 6.5 2.173 6.5 3C6.5 3.827 7.173 4.5 8 4.5C8.827 4.5 9.5 3.827 9.5 3ZM8 3.5C7.7245 3.5 7.5 3.2755 7.5 3C7.5 2.7245 7.7245 2.5 8 2.5C8.2755 2.5 8.5 2.7245 8.5 3C8.5 3.2755 8.2755 3.5 8 3.5ZM10.5 7.261V6C10.5 5.173 9.827 4.5 9 4.5H7C6.173 4.5 5.5 5.173 5.5 6V7.261C4.88498 7.67182 4.38073 8.22793 4.03188 8.8801C3.68303 9.53227 3.50035 10.2604 3.5 11C3.5 13.481 5.519 15.5 8 15.5C10.481 15.5 12.5 13.481 12.5 11C12.4997 10.2604 12.317 9.53227 11.9681 8.8801C11.6193 8.22793 11.115 7.67182 10.5 7.261ZM6.5 6C6.5 5.7245 6.7245 5.5 7 5.5H9C9.2755 5.5 9.5 5.7245 9.5 6V6.7625C9.0187 6.58981 8.51134 6.50102 8 6.5C7.4735 6.5 6.97 6.5955 6.5 6.7625V6ZM8 14.5C6.07 14.5 4.5 12.93 4.5 11C4.5 9.07 6.07 7.5 8 7.5C9.93 7.5 11.5 9.07 11.5 11C11.5 12.93 9.93 14.5 8 14.5Z" fill="#E9BE24"/>
<path d="M9.14641 9.14647L7.79291 10.5H6.49991C6.3673 10.5 6.24012 10.5527 6.14635 10.6464C6.05259 10.7402 5.99991 10.8674 5.99991 11C5.99991 11.1326 6.05259 11.2598 6.14635 11.3535C6.24012 11.4473 6.3673 11.5 6.49991 11.5H7.99991C8.13241 11.5 8.25991 11.4475 8.35341 11.3535L9.85341 9.85348C9.89983 9.80705 9.93665 9.75194 9.96178 9.69129C9.9869 9.63063 9.99983 9.56563 9.99983 9.49998C9.99983 9.43432 9.9869 9.36932 9.96178 9.30866C9.93665 9.24801 9.89983 9.1929 9.85341 9.14647C9.80699 9.10005 9.75187 9.06323 9.69122 9.0381C9.63057 9.01298 9.56556 9.00005 9.49991 9.00005C9.43426 9.00005 9.36925 9.01298 9.30859 9.0381C9.24794 9.06323 9.19283 9.10005 9.14641 9.14647ZM2.77741 9.08397C2.7228 9.04746 2.66153 9.02207 2.5971 9.00927C2.53267 8.99647 2.46635 8.9965 2.40193 9.00937C2.33751 9.02223 2.27626 9.04768 2.22169 9.08425C2.16712 9.12081 2.1203 9.16779 2.08391 9.22247L1.08391 10.7225C1.02919 10.8046 1 10.9011 1 10.9997C1 11.0984 1.02919 11.1949 1.08391 11.277L2.08391 12.777C2.12022 12.8318 2.16699 12.8788 2.22154 12.9155C2.27609 12.9521 2.33734 12.9776 2.40178 12.9906C2.46622 13.0035 2.53257 13.0035 2.59703 12.9907C2.66149 12.9779 2.72279 12.9525 2.77741 12.916C2.83204 12.8795 2.87897 12.8327 2.9155 12.7781C2.95203 12.7235 2.97745 12.6623 2.99031 12.5979C3.00317 12.5335 3.00322 12.4672 2.99046 12.4028C2.97769 12.3384 2.95236 12.2771 2.91591 12.2225L2.10091 11L2.91591 9.77748C2.95236 9.72285 2.97769 9.66157 2.99046 9.59716C3.00322 9.53274 3.00317 9.46644 2.99031 9.40204C2.97745 9.33764 2.95203 9.2764 2.9155 9.22183C2.87897 9.16725 2.83204 9.12041 2.77741 9.08397ZM14.9159 10.7225L13.9159 9.22247C13.8795 9.16784 13.8326 9.12093 13.778 9.0844C13.7235 9.04788 13.6622 9.02246 13.5978 9.0096C13.5334 8.99674 13.4671 8.99669 13.4027 9.00945C13.3383 9.02221 13.277 9.04753 13.2224 9.08397C13.1678 9.12042 13.1209 9.16726 13.0843 9.22184C13.0478 9.27641 13.0224 9.33764 13.0095 9.40204C12.9967 9.46644 12.9966 9.53274 13.0094 9.59716C13.0221 9.66157 13.0475 9.72285 13.0839 9.77748L13.8989 11L13.0839 12.2225C13.0168 12.3328 12.9949 12.4648 13.0229 12.5908C13.0508 12.7169 13.1264 12.8273 13.2338 12.8989C13.3412 12.9706 13.4721 12.9979 13.5993 12.9753C13.7264 12.9527 13.8398 12.8818 13.9159 12.7775L14.9159 11.2775C14.9707 11.1953 15 11.0987 15 11C15 10.9012 14.9707 10.8046 14.9159 10.7225Z" fill="#E9BE24"/>
</g>
<defs>
<clipPath id="clip0_425_6607">
<rect width="16" height="16" fill="white" transform="translate(0 0.5)"/>
</clipPath>
</defs>
</svg>
