<svg width="17" height="17" viewBox="0 0 17 17" fill="none" xmlns="http://www.w3.org/2000/svg">
<g clip-path="url(#clip0_425_6630)">
<path d="M14.0664 14.333H10.6064C9.66062 14.3407 8.73144 14.0847 7.92313 13.5936C7.11481 13.1025 6.45937 12.3959 6.03038 11.553C5.99422 11.479 5.97686 11.3973 5.97982 11.315C5.98278 11.2327 6.00597 11.1524 6.04735 11.0812C6.08872 11.0101 6.14701 10.9502 6.21704 10.9069C6.28708 10.8636 6.36671 10.8382 6.44888 10.833C6.54769 10.8269 6.64609 10.8503 6.73156 10.9002C6.81704 10.9502 6.88572 11.0244 6.92888 11.1135C7.27513 11.7887 7.80268 12.3541 8.45234 12.7463C9.10201 13.1384 9.84809 13.3418 10.6069 13.3335H13.9584L13.5084 12.8885C13.4611 12.8418 13.4237 12.7862 13.3982 12.7248C13.3727 12.6635 13.3597 12.5977 13.36 12.5312C13.3602 12.4648 13.3737 12.3991 13.3996 12.3379C13.4255 12.2768 13.4633 12.2214 13.5109 12.175C13.8736 11.8298 14.163 11.415 14.3616 10.9554C14.5602 10.4957 14.6641 10.0007 14.6669 9.50001C14.6528 8.6117 14.3327 7.75543 13.7607 7.07566C13.1887 6.39588 12.3997 5.93421 11.5269 5.76851C11.4014 5.73637 11.2932 5.65681 11.2251 5.54655C11.1571 5.4363 11.1344 5.30394 11.1619 5.17732C11.1895 5.05071 11.265 4.9397 11.3727 4.86765C11.4804 4.7956 11.6118 4.76813 11.7394 4.79101C12.8359 5.00415 13.8254 5.58897 14.5408 6.44682C15.2563 7.30466 15.654 8.38303 15.6669 9.50001C15.6647 10.6055 15.2711 11.6745 14.5559 12.5175L14.7384 12.6975C14.8728 12.8309 14.9646 13.0011 15.0022 13.1867C15.0397 13.3723 15.0214 13.5649 14.9494 13.74C14.8775 13.9152 14.7551 14.065 14.5979 14.1706C14.4407 14.2761 14.2557 14.3327 14.0664 14.333Z" fill="#E9BE24"/>
<path d="M6.83301 11.8335H3.04001C2.84215 11.8335 2.64873 11.7749 2.48421 11.665C2.3197 11.5551 2.19148 11.3988 2.11579 11.216C2.0401 11.0332 2.02034 10.8321 2.059 10.6381C2.09767 10.444 2.19303 10.2658 2.33301 10.126L2.56551 9.89398C1.77106 8.97393 1.33365 7.79906 1.33301 6.58348C1.3684 5.15869 1.96719 3.80603 2.99814 2.82195C4.02908 1.83786 5.40811 1.3026 6.83301 1.33348C8.25791 1.3026 9.63693 1.83786 10.6679 2.82195C11.6988 3.80603 12.2976 5.15869 12.333 6.58348C12.2976 8.00827 11.6988 9.36093 10.6679 10.345C9.63693 11.3291 8.25791 11.8644 6.83301 11.8335ZM6.83301 2.33348C5.67329 2.30252 4.54856 2.73239 3.70513 3.52896C2.8617 4.32554 2.36831 5.42389 2.33301 6.58348C2.33484 7.13787 2.44889 7.68615 2.66827 8.19528C2.88765 8.70442 3.20782 9.16388 3.60951 9.54598C3.65708 9.59217 3.69499 9.64736 3.72102 9.70835C3.74706 9.76933 3.76071 9.83488 3.76118 9.90118C3.76164 9.96749 3.74891 10.0332 3.72373 10.0946C3.69855 10.1559 3.66143 10.2116 3.61451 10.2585L3.04001 10.8335H6.83301C7.99273 10.8644 9.11745 10.4346 9.96088 9.63799C10.8043 8.84142 11.2977 7.74307 11.333 6.58348C11.2977 5.42389 10.8043 4.32554 9.96088 3.52896C9.11745 2.73239 7.99273 2.30252 6.83301 2.33348Z" fill="#E9BE24"/>
</g>
<defs>
<clipPath id="clip0_425_6630">
<rect width="16" height="16" fill="white" transform="translate(0.5 0.5)"/>
</clipPath>
</defs>
</svg>
