<svg width="16" height="17" viewBox="0 0 16 17" fill="none" xmlns="http://www.w3.org/2000/svg">
<g clip-path="url(#clip0_425_6599)">
<path d="M13.5 7.5C13.5 7.36739 13.4474 7.24021 13.3536 7.14645C13.2598 7.05268 13.1327 7 13 7C12.8674 7 12.7403 7.05268 12.6465 7.14645C12.5527 7.24021 12.5 7.36739 12.5 7.5C12.5 8.69347 12.0259 9.83807 11.182 10.682C10.3381 11.5259 9.19352 12 8.00005 12C6.80657 12 5.66198 11.5259 4.81807 10.682C3.97415 9.83807 3.50005 8.69347 3.50005 7.5C3.50005 7.36739 3.44737 7.24021 3.3536 7.14645C3.25983 7.05268 3.13266 7 3.00005 7C2.86744 7 2.74026 7.05268 2.64649 7.14645C2.55273 7.24021 2.50005 7.36739 2.50005 7.5C2.49435 8.87606 3.00469 10.2043 3.93033 11.2225C4.85597 12.2407 6.12968 12.8749 7.50005 13V15.5C7.50005 15.6326 7.55273 15.7598 7.64649 15.8536C7.74026 15.9473 7.86744 16 8.00005 16C8.13266 16 8.25983 15.9473 8.3536 15.8536C8.44737 15.7598 8.50005 15.6326 8.50005 15.5V13C9.87042 12.8749 11.1441 12.2407 12.0698 11.2225C12.9954 10.2043 13.5057 8.87606 13.5 7.5Z" fill="#E9BE24"/>
<path d="M8 10C8.79565 10 9.55871 9.68393 10.1213 9.12132C10.6839 8.55871 11 7.79565 11 7V4C11 3.20435 10.6839 2.44129 10.1213 1.87868C9.55871 1.31607 8.79565 1 8 1C7.20435 1 6.44129 1.31607 5.87868 1.87868C5.31607 2.44129 5 3.20435 5 4V7C5 7.79565 5.31607 8.55871 5.87868 9.12132C6.44129 9.68393 7.20435 10 8 10ZM6 4C6 3.46957 6.21071 2.96086 6.58579 2.58579C6.96086 2.21071 7.46957 2 8 2C8.53043 2 9.03914 2.21071 9.41421 2.58579C9.78929 2.96086 10 3.46957 10 4V7C10 7.53043 9.78929 8.03914 9.41421 8.41421C9.03914 8.78929 8.53043 9 8 9C7.46957 9 6.96086 8.78929 6.58579 8.41421C6.21071 8.03914 6 7.53043 6 7V4Z" fill="#E9BE24"/>
</g>
<defs>
<clipPath id="clip0_425_6599">
<rect width="16" height="16" fill="white" transform="translate(0 0.5)"/>
</clipPath>
</defs>
</svg>
