<svg width="16" height="17" viewBox="0 0 16 17" fill="none" xmlns="http://www.w3.org/2000/svg">
<g clip-path="url(#clip0_425_6616)">
<mask id="mask0_425_6616" style="mask-type:luminance" maskUnits="userSpaceOnUse" x="0" y="0" width="16" height="17">
<path d="M0 0.500061H16V16.5001H0V0.500061Z" fill="white"/>
</mask>
<g mask="url(#mask0_425_6616)">
<path d="M8 5.50006C7.33696 5.50006 6.70107 5.23667 6.23223 4.76783C5.76339 4.29899 5.5 3.6631 5.5 3.00006C5.5 2.33702 5.76339 1.70114 6.23223 1.23229C6.70107 0.763453 7.33696 0.500061 8 0.500061C8.66304 0.500061 9.29893 0.763453 9.76777 1.23229C10.2366 1.70114 10.5 2.33702 10.5 3.00006C10.5 3.6631 10.2366 4.29899 9.76777 4.76783C9.29893 5.23667 8.66304 5.50006 8 5.50006ZM8 1.50006C7.60218 1.50006 7.22064 1.6581 6.93934 1.9394C6.65804 2.22071 6.5 2.60224 6.5 3.00006C6.5 3.39789 6.65804 3.77942 6.93934 4.06072C7.22064 4.34203 7.60218 4.50006 8 4.50006C8.39782 4.50006 8.77936 4.34203 9.06066 4.06072C9.34196 3.77942 9.5 3.39789 9.5 3.00006C9.5 2.60224 9.34196 2.22071 9.06066 1.9394C8.77936 1.6581 8.39782 1.50006 8 1.50006Z" fill="#E9BE24"/>
<path d="M10.083 9.50006H5.9165C5.67347 9.49993 5.44043 9.40333 5.26858 9.23148C5.09673 9.05963 5.00013 8.82659 5 8.58356V7.41656C5.00093 6.64325 5.30857 5.90189 5.85542 5.35513C6.40228 4.80837 7.14369 4.50085 7.917 4.50006H8.0835C8.85672 4.50099 9.598 4.80856 10.1448 5.35531C10.6915 5.90206 10.9991 6.64334 11 7.41656V8.58356C10.9997 8.82664 10.903 9.05967 10.7311 9.23151C10.5592 9.40334 10.3261 9.49993 10.083 9.50006ZM6 8.50006H10V7.41656C9.99934 6.90839 9.79714 6.42123 9.43776 6.06194C9.07838 5.70266 8.59117 5.50059 8.083 5.50006H7.9165C7.40842 5.50072 6.92133 5.70285 6.56206 6.06212C6.20279 6.42139 6.00066 6.90848 6 7.41656V8.50006Z" fill="#E9BE24"/>
<path d="M13 11.5001H3C2.73486 11.4998 2.48066 11.3944 2.29319 11.2069C2.10571 11.0194 2.00026 10.7652 2 10.5001V9.50006C2.00026 9.23493 2.10571 8.98073 2.29319 8.79325C2.48066 8.60577 2.73486 8.50033 3 8.50006H13C13.2651 8.50033 13.5193 8.60577 13.7068 8.79325C13.8943 8.98073 13.9997 9.23493 14 9.50006V10.5001C13.9997 10.7652 13.8943 11.0194 13.7068 11.2069C13.5193 11.3944 13.2651 11.4998 13 11.5001ZM3 9.50006V10.5001H13.001L13 9.50006H3Z" fill="#E9BE24"/>
<path d="M11.9376 16.5001H4.06257C3.92996 16.5001 3.80278 16.4474 3.70902 16.3536C3.61525 16.2598 3.56257 16.1327 3.56257 16.0001V13.0691L3.01857 11.1351C2.99773 11.0607 2.99438 10.9826 3.00878 10.9068C3.02318 10.8309 3.05495 10.7595 3.10159 10.698C3.14822 10.6365 3.20847 10.5866 3.2776 10.5522C3.34674 10.5179 3.42288 10.5001 3.50007 10.5001H12.5001C12.5773 10.5001 12.6534 10.5179 12.7225 10.5522C12.7917 10.5866 12.8519 10.6365 12.8986 10.698C12.9452 10.7595 12.977 10.8309 12.9914 10.9068C13.0058 10.9826 13.0024 11.0607 12.9816 11.1351L12.4376 13.0691V16.0001C12.4376 16.1327 12.3849 16.2598 12.2911 16.3536C12.1974 16.4474 12.0702 16.5001 11.9376 16.5001ZM4.56257 15.5001H11.4376V13.0001C11.4376 12.9546 11.4441 12.9091 11.4561 12.8651L11.8401 11.5001H4.16007L4.54407 12.8651C4.55644 12.909 4.56267 12.9544 4.56257 13.0001V15.5001Z" fill="#E9BE24"/>
<path d="M10 16.5H6C5.86739 16.5 5.74022 16.4473 5.64645 16.3536C5.55268 16.2598 5.5 16.1326 5.5 16V13C5.5 12.8674 5.55268 12.7402 5.64645 12.6465C5.74022 12.5527 5.86739 12.5 6 12.5H10C10.1326 12.5 10.2598 12.5527 10.3536 12.6465C10.4473 12.7402 10.5 12.8674 10.5 13V16C10.5 16.1326 10.4473 16.2598 10.3536 16.3536C10.2598 16.4473 10.1326 16.5 10 16.5ZM6.5 15.5H9.5V13.5H6.5V15.5ZM3.5 9.50003C3.36739 9.50003 3.24022 9.44735 3.14645 9.35358C3.05268 9.25981 3 9.13263 3 9.00003V6.50003C2.99993 6.42246 3.0179 6.34595 3.0525 6.27653L3.5525 5.27653C3.58185 5.21776 3.62249 5.16535 3.67209 5.12229C3.7217 5.07923 3.7793 5.04636 3.84161 5.02556C3.90392 5.00476 3.96971 4.99643 4.03524 5.00106C4.10076 5.00569 4.16473 5.02318 4.2235 5.05253C4.28227 5.08188 4.33468 5.12251 4.37774 5.17212C4.4208 5.22173 4.45367 5.27933 4.47447 5.34163C4.49527 5.40394 4.50359 5.46974 4.49897 5.53526C4.49434 5.60079 4.47685 5.66476 4.4475 5.72353L4 6.61853V9.00003C4 9.13263 3.94732 9.25981 3.85355 9.35358C3.75979 9.44735 3.63261 9.50003 3.5 9.50003ZM12.5 9.50003C12.3674 9.50003 12.2402 9.44735 12.1464 9.35358C12.0527 9.25981 12 9.13263 12 9.00003V6.61803L11.553 5.72353C11.5212 5.66459 11.5016 5.59987 11.4953 5.5332C11.489 5.46654 11.4962 5.39929 11.5164 5.33544C11.5366 5.2716 11.5694 5.21246 11.6128 5.16153C11.6563 5.11061 11.7096 5.06894 11.7695 5.03899C11.8294 5.00905 11.8947 4.99144 11.9615 4.98721C12.0283 4.98297 12.0953 4.99221 12.1585 5.01436C12.2217 5.03652 12.2798 5.07114 12.3294 5.11617C12.3789 5.16121 12.4189 5.21574 12.447 5.27653L12.947 6.27653C12.982 6.34653 13 6.42253 13 6.50003V9.00003C13 9.13263 12.9473 9.25981 12.8536 9.35358C12.7598 9.44735 12.6326 9.50003 12.5 9.50003Z" fill="#E9BE24"/>
</g>
</g>
<defs>
<clipPath id="clip0_425_6616">
<rect width="16" height="16" fill="white" transform="translate(0 0.5)"/>
</clipPath>
</defs>
</svg>
