<svg width="242" height="82" viewBox="0 0 242 82" fill="none" xmlns="http://www.w3.org/2000/svg">
<path fill-rule="evenodd" clip-rule="evenodd" d="M153.643 43.9377C152.495 43.9377 151.565 44.8662 151.565 46.012C151.565 47.1575 152.495 48.086 153.643 48.086C154.791 48.086 155.722 47.1575 155.722 46.012C155.722 44.8662 154.791 43.9377 153.643 43.9377ZM220.669 42.3597C220.449 41.8687 220.132 41.4429 219.721 41.082C219.309 40.7214 218.817 40.4205 218.245 40.1803C217.672 39.9397 217.025 39.7396 216.302 39.5791C215.137 39.2987 214.278 39.033 213.726 38.7826C213.174 38.5321 212.898 38.1864 212.898 37.7454C212.898 37.3845 213.064 37.0794 213.395 36.8282C213.726 36.5781 214.314 36.4525 215.157 36.4525C216.001 36.4525 216.734 36.5682 217.356 36.7985C217.978 37.0289 218.481 37.2847 218.862 37.5651L220.7 35.0699C219.997 34.5489 219.209 34.1584 218.335 33.8977C217.462 33.6373 216.402 33.5068 215.157 33.5068C214.454 33.5068 213.756 33.6073 213.064 33.8073C212.371 34.0081 211.748 34.2935 211.196 34.6642C210.644 35.035 210.197 35.4961 209.856 36.0471C209.514 36.5982 209.344 37.2243 209.344 37.9257C209.344 38.6072 209.489 39.1935 209.78 39.6843C210.071 40.1757 210.443 40.5965 210.895 40.9469C211.347 41.2975 211.834 41.5734 212.356 41.7734C212.878 41.9741 213.38 42.1343 213.862 42.2542C214.645 42.4349 215.268 42.6053 215.73 42.7654C216.191 42.9259 216.553 43.0861 216.814 43.2463C217.075 43.4071 217.245 43.5722 217.326 43.7426C217.406 43.9127 217.447 44.0986 217.447 44.2986C217.447 44.76 217.215 45.0902 216.754 45.2906C216.292 45.491 215.679 45.5912 214.916 45.5912C214.053 45.5912 213.284 45.4462 212.612 45.1555C211.939 44.8648 211.382 44.499 210.94 44.058L208.802 46.3729C209.444 47.094 210.297 47.6405 211.362 48.0109C212.426 48.3816 213.621 48.5672 214.946 48.5672C215.77 48.5672 216.548 48.4621 217.281 48.2515C218.014 48.0412 218.656 47.7456 219.209 47.3646C219.761 46.9843 220.198 46.5183 220.519 45.9669C220.84 45.4158 221.001 44.7999 221.001 44.1183C221.001 43.4371 220.89 42.8508 220.669 42.3597ZM205.247 33.9876L202.566 43.7874L199.554 33.9876H196.572L193.59 43.7874L190.879 33.9876H186.963L191.752 48.086H195.066L197.867 39.5791L200.759 48.086H204.193L208.982 33.9876H205.247ZM183.559 39.5491C183.559 39.1883 183.488 38.8274 183.348 38.4668C183.208 38.1063 183.002 37.7807 182.731 37.4896C182.46 37.1996 182.113 36.9591 181.691 36.7682C181.27 36.5781 180.788 36.4828 180.246 36.4828C179.663 36.4828 179.146 36.5781 178.694 36.7682C178.242 36.9591 177.866 37.1996 177.565 37.4896C177.263 37.7807 177.032 38.1063 176.872 38.4668C176.711 38.8274 176.631 39.1883 176.631 39.5491H183.559ZM186.842 38.6471C187.083 39.6091 187.204 40.5913 187.204 41.5931V42.104H176.661C176.661 42.6254 176.776 43.096 177.007 43.5168C177.238 43.9381 177.539 44.2986 177.911 44.5992C178.283 44.8997 178.704 45.1301 179.176 45.2906C179.648 45.4511 180.115 45.5312 180.577 45.5312C181.259 45.5312 181.857 45.4663 182.369 45.3358C182.881 45.2056 183.318 45.0553 183.679 44.8846C184.041 44.7145 184.337 44.5342 184.568 44.3434C184.799 44.1536 184.975 43.998 185.095 43.8777L187.023 46.042C186.963 46.102 186.797 46.2674 186.526 46.538C186.255 46.8086 185.863 47.094 185.351 47.3949C184.839 47.6955 184.186 47.9661 183.394 48.2063C182.6 48.4469 181.651 48.5672 180.547 48.5672C179.422 48.5672 178.397 48.3767 177.474 47.9961C176.55 47.6154 175.762 47.0894 175.11 46.4177C174.457 45.7467 173.955 44.9403 173.604 43.998C173.252 43.0561 173.077 42.014 173.077 40.8714C173.077 39.8296 173.252 38.8626 173.604 37.9708C173.955 37.0794 174.447 36.3025 175.079 35.6411C175.712 34.9796 176.465 34.4589 177.339 34.0779C178.212 33.6976 179.181 33.5068 180.246 33.5068C181.531 33.5068 182.62 33.7424 183.514 34.213C184.407 34.6843 185.125 35.3006 185.668 36.0619C186.21 36.8236 186.602 37.6851 186.842 38.6471ZM166.088 33.6874C165.526 33.6874 165.024 33.7474 164.582 33.8677C164.14 33.9876 163.743 34.1432 163.392 34.3333C163.041 34.5242 162.739 34.7295 162.488 34.9496C162.237 35.1705 162.022 35.3807 161.841 35.5808L161.751 33.9876H158.347V48.086H161.901V40.4508C161.901 39.9301 161.986 39.4437 162.157 38.9928C162.327 38.542 162.564 38.1465 162.865 37.8054C163.166 37.4649 163.528 37.1996 163.949 37.0088C164.371 36.8186 164.823 36.7234 165.305 36.7234C166.088 36.7234 166.725 36.9689 167.218 37.4596C167.71 37.9511 167.956 38.6471 167.956 39.5491V48.086H171.51V39.5192C171.51 37.7355 171.048 36.3177 170.125 35.2654C169.201 34.213 167.855 33.6874 166.088 33.6874ZM146.479 41.022C146.479 40.5214 146.398 40.0049 146.238 39.4737C146.077 38.9431 145.831 38.4622 145.5 38.0308C145.168 37.6001 144.751 37.2494 144.25 36.9788C143.747 36.7082 143.155 36.5728 142.473 36.5728C141.789 36.5728 141.197 36.7082 140.695 36.9788C140.193 37.2494 139.776 37.6001 139.445 38.0308C139.114 38.4622 138.868 38.9431 138.707 39.4737C138.546 40.0049 138.466 40.5214 138.466 41.022C138.466 41.5434 138.546 42.0641 138.707 42.5852C138.868 43.1062 139.114 43.5874 139.445 44.028C139.776 44.469 140.193 44.8246 140.695 45.0952C141.197 45.3657 141.789 45.5009 142.473 45.5009C143.155 45.5009 143.747 45.3657 144.25 45.0952C144.751 44.8246 145.168 44.469 145.5 44.028C145.831 43.5874 146.077 43.1062 146.238 42.5852C146.398 42.0641 146.479 41.5434 146.479 41.022ZM149.506 38.1211C149.877 39.033 150.063 40 150.063 41.022C150.063 42.044 149.877 43.0113 149.506 43.9229C149.134 44.8352 148.617 45.6363 147.955 46.3274C147.292 47.0192 146.494 47.5653 145.56 47.9661C144.626 48.3665 143.597 48.5672 142.473 48.5672C141.347 48.5672 140.319 48.3665 139.385 47.9661C138.451 47.5653 137.653 47.0192 136.99 46.3274C136.327 45.6363 135.81 44.8352 135.439 43.9229C135.067 43.0113 134.881 42.044 134.881 41.022C134.881 40 135.067 39.033 135.439 38.1211C135.81 37.2095 136.327 36.4126 136.99 35.7314C137.653 35.0502 138.451 34.5094 139.385 34.1079C140.319 33.7075 141.347 33.5068 142.473 33.5068C143.597 33.5068 144.626 33.7075 145.56 34.1079C146.494 34.5094 147.292 35.0502 147.955 35.7314C148.617 36.4126 149.134 37.2095 149.506 38.1211ZM132.282 45.2906C131.951 45.4511 131.504 45.5312 130.942 45.5312C130.339 45.5312 129.902 45.316 129.631 44.8846C129.36 44.4542 129.225 43.8379 129.225 43.036V36.8737H133.02V33.9876H129.225V29.4184H125.67V33.9876H123.26V36.8737H125.67V43.2766C125.67 44.058 125.75 44.7748 125.911 45.4257C126.072 46.0773 126.338 46.6333 126.709 47.094C127.081 47.5554 127.568 47.911 128.17 48.1615C128.773 48.412 129.506 48.5372 130.369 48.5372C131.213 48.5372 131.976 48.412 132.659 48.1615C133.341 47.911 134.034 47.4951 134.737 46.9137L133.231 44.7191C132.93 44.9403 132.614 45.1301 132.282 45.2906ZM119.013 41.1123C119.013 40.5108 118.948 39.9503 118.817 39.4289C118.687 38.9078 118.476 38.4517 118.185 38.0608C117.893 37.6703 117.517 37.3598 117.055 37.1291C116.593 36.8987 116.021 36.7834 115.338 36.7834C114.796 36.7834 114.304 36.8987 113.862 37.1291C113.42 37.3598 113.044 37.6551 112.733 38.016C112.421 38.3765 112.18 38.7727 112.01 39.2031C111.839 39.6345 111.754 40.0501 111.754 40.4508V44.6291C112.457 45.2109 113.521 45.5009 114.947 45.5009C115.589 45.5009 116.161 45.376 116.664 45.1251C117.165 44.8747 117.592 44.5441 117.944 44.1331C118.295 43.7229 118.562 43.2568 118.742 42.7354C118.923 42.2144 119.013 41.6732 119.013 41.1123ZM122.206 38.3765C122.467 39.2585 122.598 40.1704 122.598 41.1123C122.598 42.2144 122.437 43.1563 122.116 43.9381C121.794 44.7191 121.393 45.401 120.911 45.982C120.107 46.9441 119.229 47.6154 118.275 47.9961C117.321 48.3767 116.342 48.5672 115.338 48.5672C114.876 48.5672 114.48 48.5467 114.148 48.5069C113.817 48.4667 113.516 48.412 113.245 48.3418C112.974 48.2712 112.722 48.1915 112.492 48.1012C112.261 48.0109 112.014 47.916 111.754 47.8158V54.0984H108.229V33.9876H111.663L111.754 35.5808C111.934 35.3807 112.16 35.1705 112.431 34.9496C112.703 34.7295 113.024 34.5288 113.395 34.3485C113.767 34.1682 114.188 34.0176 114.66 33.8977C115.132 33.7774 115.659 33.7174 116.242 33.7174C117.326 33.7174 118.265 33.9276 119.059 34.3485C119.851 34.7694 120.509 35.3253 121.031 36.0168C121.553 36.7082 121.945 37.4949 122.206 38.3765ZM99.7951 43.6371L95.7588 33.9876H91.662L98.0177 47.9661L97.5659 49.1084C97.2241 49.9501 96.8981 50.5706 96.5871 50.9721C96.2753 51.3725 95.879 51.5732 95.3972 51.5732C95.0355 51.5732 94.7343 51.4981 94.4933 51.3478C94.2525 51.1975 94.0312 51.0423 93.8308 50.8818L92.2344 53.3766C92.6356 53.7174 93.1026 53.9827 93.6349 54.1735C94.1666 54.3637 94.8347 54.4593 95.6383 54.4593C96.5616 54.4593 97.3248 54.2586 97.9275 53.8578C98.5299 53.4567 99.0369 52.9409 99.4487 52.3098C99.8598 51.6783 100.207 50.9918 100.488 50.2507C100.769 49.5088 101.05 48.7877 101.332 48.086L107.236 33.9876H103.35L99.7951 43.6371ZM89.3731 33.7174C88.7902 33.7174 88.2733 33.7876 87.8216 33.9276C87.3698 34.068 86.9728 34.2388 86.6317 34.4388C86.2902 34.6392 85.9939 34.8593 85.7433 35.1003C85.492 35.3405 85.2862 35.5614 85.1257 35.7614L85.0352 33.9876H81.6314V48.086H85.1858V40.4808C85.1858 39.9601 85.2809 39.4888 85.4722 39.068C85.6627 38.6471 85.9187 38.2866 86.2403 37.9856C86.561 37.6851 86.9428 37.4551 87.3846 37.2945C87.8265 37.1344 88.2885 37.054 88.7704 37.054C89.1115 37.054 89.4077 37.0741 89.6591 37.1139C89.9097 37.1545 90.1561 37.2243 90.3972 37.3245L91.1201 33.9876C90.8387 33.8878 90.5626 33.8176 90.2915 33.7774C90.0204 33.7375 89.7142 33.7174 89.3731 33.7174ZM71.0287 39.3685C70.8675 39.9097 70.7876 40.4611 70.7876 41.022C70.7876 41.5632 70.8675 42.0944 71.0287 42.6151C71.1892 43.1365 71.4352 43.6071 71.7665 44.028C72.0981 44.4489 72.5145 44.7897 73.0168 45.05C73.5184 45.3107 74.1109 45.4409 74.7939 45.4409C75.4966 45.4409 76.139 45.3054 76.7219 45.0352C77.3041 44.7646 77.7958 44.3991 78.1978 43.9381L80.3064 46.2223C79.6436 46.924 78.8606 47.4849 77.9567 47.9057C77.0531 48.3266 75.999 48.5372 74.7939 48.5372C73.5891 48.5372 72.5145 48.3566 71.5706 47.9961C70.6268 47.6352 69.8335 47.1243 69.1912 46.4629C68.5482 45.8018 68.0564 45.0101 67.715 44.088C67.3735 43.1665 67.2031 42.1445 67.2031 41.022C67.2031 40 67.3883 39.033 67.7602 38.1211C68.1317 37.2095 68.6489 36.4126 69.3117 35.7314C69.9742 35.0502 70.7724 34.5094 71.7064 34.1079C72.6403 33.7075 73.669 33.5068 74.7939 33.5068C75.9385 33.5068 76.9824 33.7124 77.9266 34.1231C78.8705 34.5341 79.6736 35.09 80.3365 35.7914L78.0772 38.0759C77.6753 37.6152 77.2037 37.2543 76.6614 36.9936C76.1192 36.7336 75.4966 36.6031 74.7939 36.6031C74.1109 36.6031 73.5184 36.7287 73.0168 36.9788C72.5145 37.2296 72.0981 37.5552 71.7665 37.9557C71.4352 38.3571 71.1892 38.8274 71.0287 39.3685Z" fill="black"/>
<path fill-rule="evenodd" clip-rule="evenodd" d="M61.0824 41C61.0824 29.9542 52.1098 21 41.0412 21C29.9726 21 21 29.9542 21 41C21 52.0458 29.9726 61 41.0412 61C52.1098 61 61.0824 52.0458 61.0824 41Z" fill="#0080C9"/>
<path fill-rule="evenodd" clip-rule="evenodd" d="M29.9469 45.5518C29.2477 45.5518 28.681 46.1173 28.681 46.8151C28.681 47.5126 29.2477 48.0781 29.9469 48.0781C30.6462 48.0781 31.2128 47.5126 31.2128 46.8151C31.2128 46.1173 30.6462 45.5518 29.9469 45.5518ZM52.959 52.8967C56.1427 49.7195 57.8961 45.4954 57.8961 41.0024C57.8961 36.538 56.0677 32.1749 52.8802 29.0313C52.6317 28.7868 52.2308 28.7885 51.9851 29.0369C51.7394 29.2849 51.7415 29.685 51.9904 29.9298C54.939 32.8377 56.6302 36.8735 56.6302 41.0024C56.6302 45.1578 55.0086 49.0648 52.0639 52.0034C49.1196 54.9421 45.2045 56.5603 41.0406 56.5599C36.8767 56.5603 32.9616 54.9421 30.0173 52.0034C27.0726 49.0651 25.4511 45.1581 25.4514 41.0028C25.4514 36.847 27.073 32.9404 30.0173 30.0018C33.8574 26.1699 39.1738 24.6515 44.6025 25.8344C44.9444 25.9095 45.2813 25.6933 45.3558 25.3525C45.4304 25.0114 45.2141 24.6748 44.8726 24.6004C39.014 23.3226 33.2731 24.9662 29.1222 29.1085C25.9386 32.2856 24.1855 36.5098 24.1855 41.0028C24.1852 45.4954 25.9386 49.7195 29.1222 52.8967C32.3059 56.0738 36.5387 57.8236 41.0406 57.8232C45.5425 57.8232 49.7757 56.0734 52.959 52.8967ZM48.8577 25.5511C48.1584 25.5511 47.5918 26.1166 47.5918 26.8144C47.5918 27.5118 48.1584 28.0773 48.8577 28.0773C49.5565 28.0773 50.1232 27.5118 50.1232 26.8144C50.1232 26.1166 49.5565 25.5511 48.8577 25.5511ZM50.3445 50.2882C55.4749 45.1684 55.4749 36.8375 50.3445 31.7173C45.2141 26.5978 36.8657 26.5978 31.7353 31.7173C28.5732 34.8733 27.2398 39.3666 28.1681 43.7375C28.2406 44.079 28.5775 44.2963 28.9186 44.2247C29.2604 44.1524 29.4789 43.8172 29.4064 43.4757C28.5672 39.5246 29.7723 35.4627 32.6304 32.6105C37.2673 27.9832 44.8125 27.9832 49.4494 32.6105C54.0867 37.2383 54.0867 44.7676 49.4494 49.395C47.2008 51.6394 44.219 52.8713 41.0424 52.8713C41.007 52.8713 40.9713 52.8713 40.936 52.8709C37.7205 52.843 34.7182 51.555 32.4816 49.244C32.2387 48.9928 31.8382 48.9861 31.5869 49.2285C31.3352 49.4708 31.3284 49.8709 31.5713 50.1217C34.0451 52.6783 37.367 54.1032 40.9247 54.1339C40.9643 54.1342 41.0031 54.1346 41.0427 54.1346C44.5569 54.1346 47.8565 52.7711 50.3445 50.2882ZM41.0403 49.9626C36.0898 49.9626 32.0623 45.9434 32.0623 41.0031C32.0623 36.0625 36.0898 32.0433 41.0403 32.0433C44.0129 32.0433 46.7879 33.508 48.4639 35.9619C48.9231 36.6347 48.7495 37.5512 48.0754 38.0098C47.4016 38.4681 46.4828 38.2945 46.0236 37.6221C44.8981 35.9743 43.0354 34.9904 41.0403 34.9904C37.7184 34.9904 35.0155 37.6877 35.0155 41.0031C35.0155 44.3182 37.7184 47.0155 41.0403 47.0155C43.0354 47.0155 44.8981 46.0316 46.0236 44.3838C46.4828 43.711 47.4016 43.5375 48.0754 43.9961C48.7495 44.4543 48.9231 45.3712 48.4639 46.0436C46.7879 48.4975 44.0129 49.9626 41.0403 49.9626Z" fill="white"/>
</svg>
