<?xml version="1.0" encoding="UTF-8" standalone="no"?>
<!-- Created with Inkscape (http://www.inkscape.org/) -->

<svg
   version="1.1"
   id="svg1"
   width="967.46667"
   height="414.53333"
   viewBox="0 0 967.46667 414.53333"
   sodipodi:docname="ICOHOLDER_LOGO (2) - Ліза Богаченко (1).eps"
   xmlns:inkscape="http://www.inkscape.org/namespaces/inkscape"
   xmlns:sodipodi="http://sodipodi.sourceforge.net/DTD/sodipodi-0.dtd"
   xmlns="http://www.w3.org/2000/svg"
   xmlns:svg="http://www.w3.org/2000/svg">
  <defs
     id="defs1" />
  <sodipodi:namedview
     id="namedview1"
     pagecolor="#ffffff"
     bordercolor="#000000"
     borderopacity="0.25"
     inkscape:showpageshadow="2"
     inkscape:pageopacity="0.0"
     inkscape:pagecheckerboard="0"
     inkscape:deskcolor="#d1d1d1">
    <inkscape:page
       x="0"
       y="0"
       inkscape:label="1"
       id="page1"
       width="967.46667"
       height="414.53333"
       margin="0"
       bleed="0" />
  </sodipodi:namedview>
  <g
     id="g1"
     inkscape:groupmode="layer"
     inkscape:label="1">
    <g
       id="group-R5">
      <path
         id="path2"
         d="m 2639,895 908,-524 c 24,-14 51,-21 78,-21 27,0 54,7 78,21 l 908,524 c 25,15 46,36 59,61 H 4497 L 3648,466 c -14,-8 -32,-8 -46,0 l -849,490 h -173 c 13,-25 34,-46 59,-61"
         style="fill:#231f20;fill-opacity:1;fill-rule:nonzero;stroke:none"
         transform="matrix(0.13333333,0,0,-0.13333333,0,414.53333)" />
      <path
         id="path3"
         d="m 3544,2388 -406,-235 h 220 l 241,139 c 16,9 36,9 52,0 l 241,-139 h 220 l -406,235 c -49,29 -112,29 -162,0"
         style="fill:#231f20;fill-opacity:1;fill-rule:nonzero;stroke:none"
         transform="matrix(0.13333333,0,0,-0.13333333,0,414.53333)" />
      <path
         id="path4"
         d="m 2368,2153 v 100 c 0,17 9,33 24,41 l 1210,699 c 15,8 33,8 48,0 l 1210,-699 c 15,-8 24,-24 24,-41 v -100 h 110 v 100 c 0,56 -30,108 -79,136 l -1210,699 c -49,28 -109,28 -158,0 L 2337,2389 c -49,-28 -79,-80 -79,-137 v -100 h 110 v 1"
         style="fill:#231f20;fill-opacity:1;fill-rule:nonzero;stroke:none"
         transform="matrix(0.13333333,0,0,-0.13333333,0,414.53333)" />
      <path
         id="path5"
         d="m 3625,700 c 28,0 56,7 81,22 l 406,235 H 3892 L 3652,817 c -16,-9 -36,-9 -52,0 l -241,139 h -220 l 406,-235 c 24,-14 52,-21 80,-21"
         style="fill:#231f20;fill-opacity:1;fill-rule:nonzero;stroke:none"
         transform="matrix(0.13333333,0,0,-0.13333333,0,414.53333)" />
      <path
         id="path6"
         d="M 4883,956 V 856 c 0,-17 -9,-33 -24,-41 L 3649,116 c -15,-8 -33,-8 -48,0 L 2391,815 c -15,8 -24,24 -24,41 V 956 H 2257 V 856 c 0,-56 30,-108 79,-136 L 3546,21 c 24,-14 52,-21 79,-21 27,0 55,7 79,21 l 1210,699 c 49,28 79,80 79,137 v 100 h -110 v -1"
         style="fill:#231f20;fill-opacity:1;fill-rule:nonzero;stroke:none"
         transform="matrix(0.13333333,0,0,-0.13333333,0,414.53333)" />
      <path
         id="path7"
         d="m 4612,2214 -908,524 c -48,28 -108,28 -156,0 l -908,-524 c -25,-15 -46,-36 -59,-61 h 173 l 849,490 c 14,8 32,8 46,0 l 849,-490 h 173 c -14,25 -34,47 -59,61"
         style="fill:#231f20;fill-opacity:1;fill-rule:nonzero;stroke:none"
         transform="matrix(0.13333333,0,0,-0.13333333,0,414.53333)" />
      <path
         id="path8"
         d="M 123,1100 H 0 v 910 h 123 v -910"
         style="fill:#231f20;fill-opacity:1;fill-rule:nonzero;stroke:none"
         transform="matrix(0.13333333,0,0,-0.13333333,0,414.53333)" />
      <path
         id="path9"
         d="m 1008,1288 c 7,0 13,-3 18,-8 l 48,-53 c -37,-43 -82,-77 -136,-101 -53.996,-24 -117,-36 -192,-36 -66,0 -125,11 -178,34 -53,23 -98.996,54 -136,95 -37.004,41 -67.004,90 -87.996,147 C 323,1423 313,1486 313,1555 c 0,69 11.004,131 33,189 22,57 53.004,106 93.996,147 40,41 88.004,73 144.008,96 C 640,2010 702,2021 770,2021 c 67,0 125,-10 173,-31 48,-21 92,-49 129,-84 l -40,-57 c -3,-4 -6,-8 -10,-10 -4,-3 -9,-4 -17,-4 -5.996,0 -10.996,2 -17,6 -6,4 -13,9 -22,15 -8,6 -18,12 -30,19 -11.996,7 -25,13 -41,19 -15.996,6 -34,11 -55,15 -20.996,4 -45,6 -72,6 -48.996,0 -93,-8 -133.996,-25 -40,-17 -75,-41 -104.004,-71 -29,-31 -52,-69 -68,-113 -16,-44 -24,-94 -24,-149 0,-57 8,-107 24,-152 16,-45 39,-82 67.004,-113 27.996,-31 60.996,-54 100,-70 38.996,-16 80,-24 123.996,-24 27,0 51.004,2 73,5 22,3 42,8 60,15 18.004,7 36,15 51,26 16,10 32.004,23 48,37 10,4 17,7 23,7"
         style="fill:#231f20;fill-opacity:1;fill-rule:nonzero;stroke:none"
         transform="matrix(0.13333333,0,0,-0.13333333,0,414.53333)" />
      <path
         id="path10"
         d="m 1956,1554 c 0,56 -8,106 -23,150 -15,44 -37,82 -65,113 -28,31 -62,54 -102,71 -40,17 -84,25 -133,25 -49,0 -93,-8 -133,-25 -40,-17 -74,-40 -102,-71 -28,-31 -50,-68 -65,-113 -15,-44 -23,-95 -23,-150 0,-56 8,-106 23,-150 15,-44 37,-82 65,-112 28,-31 62,-54 102,-70 40,-16 84,-24 133,-24 49,0 94,8 133,24 40,16 74,40 102,70 28,31 50,68 65,112 15,44 23,94 23,150 z m 126,0 c 0,-68 -11,-131 -32,-188 -22,-57 -52,-106 -91,-147 -39,-41 -87,-73 -142,-96 -55,-23 -116,-34 -183,-34 -67,0 -128,11 -183,34 -55,23 -102,54 -142,96 -39,41 -70,90 -91,147 -22,57 -32,119 -32,188 0,68 11,131 32,188 22,57 52,106 91,147 39,41 87,73 142,96 55,23 116,34 183,34 67,0 128,-11 183,-34 55,-23 103,-55 142,-96 39,-41 70,-90 91,-147 21,-57 32,-120 32,-188"
         style="fill:#231f20;fill-opacity:1;fill-rule:nonzero;stroke:none"
         transform="matrix(0.13333333,0,0,-0.13333333,0,414.53333)" />
      <path
         id="path11"
         d="m 2988,1100 h -124 v 414 h -490 v -414 h -124 v 910 h 124 v -406 h 490 v 406 h 124 v -910"
         style="fill:#231f20;fill-opacity:1;fill-rule:nonzero;stroke:none"
         transform="matrix(0.13333333,0,0,-0.13333333,0,414.53333)" />
      <path
         id="path12"
         d="m 3928,1554 c 0,56 -8,106 -23,150 -15,44 -37,82 -65,113 -28,31 -62,54 -102,71 -40,17 -84,25 -133,25 -49,0 -93,-8 -133,-25 -40,-17 -74,-40 -102,-71 -28,-31 -50,-68 -65,-113 -15,-44 -23,-95 -23,-150 0,-56 8,-106 23,-150 15,-44 37,-82 65,-112 28,-31 62,-54 102,-70 40,-16 84,-24 133,-24 49,0 94,8 133,24 39,16 74,40 102,70 28,31 50,68 65,112 16,44 23,94 23,150 z m 127,0 c 0,-68 -11,-131 -32,-188 -22,-57 -52,-106 -91,-147 -39,-41 -87,-73 -142,-96 -55,-23 -116,-34 -183,-34 -67,0 -128,11 -183,34 -55,23 -102,54 -142,96 -39,41 -70,90 -91,147 -22,57 -32,119 -32,188 0,68 11,131 32,188 22,57 52,106 91,147 39,41 87,73 142,96 55,23 116,34 183,34 67,0 128,-11 183,-34 55,-23 103,-55 142,-96 39,-41 70,-90 91,-147 21,-57 32,-120 32,-188"
         style="fill:#231f20;fill-opacity:1;fill-rule:nonzero;stroke:none"
         transform="matrix(0.13333333,0,0,-0.13333333,0,414.53333)" />
      <path
         id="path13"
         d="m 4346,1203 h 394 v -103 h -517 v 910 h 123 v -807"
         style="fill:#231f20;fill-opacity:1;fill-rule:nonzero;stroke:none"
         transform="matrix(0.13333333,0,0,-0.13333333,0,414.53333)" />
      <path
         id="path14"
         d="m 5538,1554 c 0,56 -8,106 -23,150 -15,44 -37,81 -65,112 -28,30 -62,54 -102,70 -40,16 -84,24 -133,24 h -216 v -710 h 216 c 49,0 93,8 133,24 40,16 74,39 102,70 28,30 50,67 65,111 15,44 23,93 23,149 z m 126,0 c 0,-68 -11,-130 -32,-186 -22,-56 -52,-104 -91,-143 -39,-40 -87,-71 -142,-92 -55,-22 -116,-33 -183,-33 h -340 v 910 h 340 c 67,0 128,-11 183,-33 55,-22 102,-53 142,-93 40,-40 70,-88 91,-144 21,-56 32,-118 32,-186"
         style="fill:#231f20;fill-opacity:1;fill-rule:nonzero;stroke:none"
         transform="matrix(0.13333333,0,0,-0.13333333,0,414.53333)" />
      <path
         id="path15"
         d="m 6392,2009 v -100 h -437 v -302 h 354 v -96 h -354 v -310 h 437 v -100 h -560 v 910 h 560 v -2"
         style="fill:#231f20;fill-opacity:1;fill-rule:nonzero;stroke:none"
         transform="matrix(0.13333333,0,0,-0.13333333,0,414.53333)" />
      <path
         id="path16"
         d="m 6704,1569 h 129 c 36,0 68,4 95,13 27,9 50,21 69,37 18,16 32,35 42,57 9,22 14,46 14,73 0,54 -18,95 -54,123 -36,28 -89,41 -160,41 h -135 v -344 z m 0,-90 v -380 h -122 v 910 h 257 c 58,0 107,-6 149,-17 42,-12 77,-28 104,-50 27,-22 48,-49 61,-80 13,-31 20,-66 20,-104 0,-32 -5,-62 -15,-90 -10,-28 -25,-53 -44,-75 -19,-22 -43,-41 -70,-57 -28,-16 -59,-28 -94,-36 15,-9 29,-22 41,-39 l 265,-361 h -109 c -22,0 -39,9 -50,26 l -236,325 c -7,10 -15,17 -23,22 -8,4 -21,7 -38,7 h -96 v -1"
         style="fill:#231f20;fill-opacity:1;fill-rule:nonzero;stroke:none"
         transform="matrix(0.13333333,0,0,-0.13333333,0,414.53333)" />
    </g>
  </g>
</svg>
