<svg width="300" height="141" viewBox="0 0 300 141" fill="none" xmlns="http://www.w3.org/2000/svg">
<path opacity="0.983" fill-rule="evenodd" clip-rule="evenodd" d="M4.04277 116.522C3.98473 116.85 4.05872 117.147 4.26429 117.408C11.8599 116.908 19.5398 116.908 27.3029 117.408C27.7437 117.156 28.1128 116.863 28.4105 116.522C30.0675 116.637 31.6917 116.491 33.2841 116.079C33.6141 115.082 34.2047 114.271 35.0562 113.642C34.9087 113.496 34.7607 113.345 34.6132 113.199C35.2694 112.765 35.8604 112.247 36.3854 111.649C36.2928 111.387 36.1448 111.166 35.9423 110.984C37.6166 109.832 38.6507 108.281 39.0437 106.332C40.2612 106.376 40.5563 105.933 39.9298 105.003C40.5018 105.109 40.9448 104.959 41.2589 104.56C42.4671 102.407 43.6488 100.484 44.8033 98.8001C59.4094 77.5957 73.8085 56.3294 88.0007 35.0009C88.3698 34.6332 88.7393 34.261 89.1083 33.8933C88.5177 33.0781 88.5917 32.8566 89.3298 33.2287C90.4228 31.4122 91.6784 29.7154 93.0958 28.1337C93.7617 26.2684 94.8693 26.1931 96.4186 27.9121C98.5891 31.5806 100.361 35.4218 101.735 39.4314C101.802 42.6834 102.319 45.8557 103.286 48.957C102.484 53.4274 101.524 57.9332 100.406 62.47C98.9879 64.3973 97.8803 66.4619 97.0832 68.6727C87.1797 83.5902 77.4326 98.0602 67.8419 112.092C66.8499 113.487 65.8163 114.892 64.7406 116.301C66.3307 116.394 67.8814 116.615 69.3926 116.965C69.6899 116.633 70.0589 116.482 70.5002 116.522C70.4422 116.85 70.5162 117.147 70.7218 117.408C104.037 117.085 137.414 117.085 170.851 117.408C173.035 117.125 175.18 116.828 177.275 116.522C180.381 116.597 183.482 116.522 186.579 116.301C186.375 116.119 186.229 115.897 186.136 115.636C186.725 115.193 187.319 114.75 187.908 114.307C187.541 113.886 187.47 113.443 187.687 112.978C188.196 113.403 188.639 113.252 189.016 112.535C190.075 110.439 191.329 108.521 192.782 106.775C195.706 102.965 198.435 98.9773 200.978 94.8127C201.191 94.3918 201.266 93.9487 201.2 93.4835C202.914 92.2828 204.093 90.6569 204.744 88.61C206.641 86.7181 207.97 84.5029 208.732 81.9642C209.813 82.0307 210.11 81.6585 209.618 80.8566C211.27 79.3547 212.746 77.7287 214.048 75.983C213.902 75.8368 213.751 75.6862 213.605 75.54C218.669 68.4423 223.618 61.4244 228.447 54.4951C228.651 53.9457 228.43 53.5736 227.783 53.3875C228.465 53.259 229.059 52.9622 229.555 52.5014C229.409 52.3552 229.258 52.2046 229.112 52.0584C231.704 49.9583 233.622 47.3753 234.872 44.305C239.457 38.0225 243.888 31.5983 248.163 25.0323C245.943 24.6469 246.094 24.35 248.606 24.1462C216.631 23.7785 184.732 23.8494 152.907 24.3677C152.07 24.2791 151.406 24.5715 150.914 25.2538C150.44 24.9481 149.926 24.7266 149.363 24.5893C149.806 24.4431 150.249 24.2924 150.692 24.1462C150.395 24.0709 150.103 24 149.806 23.9247C148.22 24.031 146.595 24.1063 144.933 24.1462C146.042 24.2038 146.928 24.6469 147.591 25.4754C147.171 25.688 146.728 25.7633 146.262 25.6969C146.751 26.5343 147.341 27.2741 148.034 27.9121C156.195 40.6764 164.542 53.0818 173.066 65.1283C175.361 69.3462 177.355 73.7013 179.047 78.1983C178.901 78.6413 178.751 79.0844 178.604 79.5274C180.691 84.144 180.691 88.7252 178.604 93.262C179.313 94.9367 178.941 96.3368 177.497 97.471C177.169 98.3305 177.24 99.1413 177.718 99.9077C176.261 100.51 175.596 101.618 175.725 103.231C174.954 104.436 174.138 105.614 173.288 106.775C173.434 107.072 173.585 107.364 173.731 107.661C172.348 108.68 171.019 108.68 169.743 107.661C162.699 97.0944 155.685 86.6074 148.698 76.2046C148.499 77.2812 148.131 77.3565 147.591 76.4261C148.433 75.5489 148.136 74.8134 146.705 74.2108C147.041 73.6083 146.819 73.0899 146.04 72.6602C145.893 72.957 145.745 73.2494 145.597 73.5463C145.334 72.926 145.408 72.3367 145.819 71.7741C144.117 69.6519 142.493 67.4366 140.945 65.1283C140.615 64.5789 140.467 63.9897 140.502 63.3561C140.059 63.3561 139.616 63.3561 139.173 63.3561C138.398 61.3535 137.364 59.4307 136.072 57.5965C134.472 58.1946 134.325 57.8978 135.629 56.7104C135.574 56.4401 135.426 56.2939 135.185 56.2673C129.564 48.1374 123.952 40.0163 118.35 31.8996C118.204 30.7787 117.687 30.3356 116.799 30.5704C116.581 30.1052 116.654 29.6622 117.02 29.2413C115.952 27.5533 114.77 25.9273 113.476 24.3677C113.169 24.6026 112.948 24.895 112.811 25.2538C109.968 24.895 107.088 24.6734 104.172 24.5893C106.24 24.4431 108.307 24.2924 110.375 24.1462C73.6397 23.9646 36.8665 23.8892 0.0553189 23.9247C0.0553189 15.9498 0.0553189 7.9749 0.0553189 0C100.037 0 200.017 0 300 0C300 46.8171 300 93.6297 300 140.447C200.017 140.447 100.037 140.447 0.0553189 140.447C-0.0922166 132.614 0.0553189 124.785 0.498369 116.965C1.64321 116.571 2.82482 116.42 4.04277 116.522ZM146.262 25.6969C145.698 25.4399 145.698 25.1475 146.262 24.8108C146.688 25.019 146.688 25.3159 146.262 25.6969ZM269.873 113.421C269.873 114.307 269.873 115.193 269.873 116.079C267.445 116.518 264.937 116.664 262.341 116.522C250.675 116.522 239.005 116.522 227.34 116.522C224.039 116.376 220.938 116.376 218.036 116.522C225.926 104.821 233.755 93.3019 241.517 81.9642C247.087 73.5773 252.403 65.6024 257.467 58.0395C260.232 54.8008 262.593 51.2564 264.556 47.4063C265.15 47.0297 265.593 46.5158 265.885 45.8557C266.306 45.643 266.749 45.5677 267.214 45.6341C267.29 45.0493 267.143 44.5309 266.771 44.0835C267.6 43.0999 268.486 42.1385 269.43 41.2036C269.873 65.2745 270.019 89.3454 269.873 113.421Z" fill="black"/>
</svg>
