<svg width="1435" height="654" viewBox="0 0 1435 654" fill="none" xmlns="http://www.w3.org/2000/svg">
<g clip-path="url(#clip0_935_14622)">
<line x1="0.373711" y1="-3.45605" x2="0.373682" y2="661.057" stroke="#FADAB1" stroke-width="0.747423"/>
<line x1="30.1667" y1="-3.45605" x2="30.1667" y2="661.057" stroke="#FADAB1" stroke-width="0.747423"/>
<line x1="59.9596" y1="-3.45605" x2="59.9596" y2="661.057" stroke="#FADAB1" stroke-width="0.747423"/>
<line x1="89.7526" y1="-3.45605" x2="89.7526" y2="661.057" stroke="#FADAB1" stroke-width="0.747423"/>
<line x1="119.547" y1="-3.45605" x2="119.547" y2="661.057" stroke="#FADAB1" stroke-width="0.747423"/>
<line x1="149.34" y1="-3.45605" x2="149.34" y2="661.057" stroke="#FADAB1" stroke-width="0.747423"/>
<line x1="179.133" y1="-3.45605" x2="179.132" y2="661.057" stroke="#FADAB1" stroke-width="0.747423"/>
<line x1="208.925" y1="-3.45605" x2="208.925" y2="661.057" stroke="#FADAB1" stroke-width="0.747423"/>
<line x1="238.718" y1="-3.45605" x2="238.718" y2="661.057" stroke="#FADAB1" stroke-width="0.747423"/>
<line x1="268.511" y1="-3.45605" x2="268.511" y2="661.057" stroke="#FADAB1" stroke-width="0.747423"/>
<line x1="298.304" y1="-3.45605" x2="298.304" y2="661.057" stroke="#FADAB1" stroke-width="0.747423"/>
<line x1="328.098" y1="-3.45605" x2="328.098" y2="661.057" stroke="#FADAB1" stroke-width="0.747423"/>
<line x1="357.891" y1="-3.45605" x2="357.891" y2="661.057" stroke="#FADAB1" stroke-width="0.747423"/>
<line x1="387.684" y1="-3.45605" x2="387.684" y2="661.057" stroke="#FADAB1" stroke-width="0.747423"/>
<line x1="417.477" y1="-3.45605" x2="417.477" y2="661.057" stroke="#FADAB1" stroke-width="0.747423"/>
<line x1="447.27" y1="-3.45605" x2="447.27" y2="661.057" stroke="#FADAB1" stroke-width="0.747423"/>
<line x1="477.063" y1="-3.45605" x2="477.063" y2="661.057" stroke="#FADAB1" stroke-width="0.747423"/>
<line x1="506.856" y1="-3.45605" x2="506.856" y2="661.057" stroke="#FADAB1" stroke-width="0.747423"/>
<line x1="536.649" y1="-3.45605" x2="536.649" y2="661.057" stroke="#FADAB1" stroke-width="0.747423"/>
<line x1="566.442" y1="-3.45605" x2="566.442" y2="661.057" stroke="#FADAB1" stroke-width="0.747423"/>
<line x1="596.236" y1="-3.45605" x2="596.236" y2="661.057" stroke="#FADAB1" stroke-width="0.747423"/>
<line x1="626.029" y1="-3.45605" x2="626.029" y2="661.057" stroke="#FADAB1" stroke-width="0.747423"/>
<line x1="655.822" y1="-3.45605" x2="655.822" y2="661.057" stroke="#FADAB1" stroke-width="0.747423"/>
<line x1="685.615" y1="-3.45605" x2="685.615" y2="661.057" stroke="#FADAB1" stroke-width="0.747423"/>
<line x1="715.408" y1="-3.45605" x2="715.408" y2="661.057" stroke="#FADAB1" stroke-width="0.747423"/>
<line x1="745.201" y1="-3.45605" x2="745.201" y2="661.057" stroke="#FADAB1" stroke-width="0.747423"/>
<line x1="774.994" y1="-3.45605" x2="774.994" y2="661.057" stroke="#FADAB1" stroke-width="0.747423"/>
<line x1="804.788" y1="-3.45605" x2="804.788" y2="661.057" stroke="#FADAB1" stroke-width="0.747423"/>
<line x1="834.581" y1="-3.45605" x2="834.581" y2="661.057" stroke="#FADAB1" stroke-width="0.747423"/>
<line x1="864.374" y1="-3.45605" x2="864.374" y2="661.057" stroke="#FADAB1" stroke-width="0.747423"/>
<line x1="894.167" y1="-3.45605" x2="894.167" y2="661.057" stroke="#FADAB1" stroke-width="0.747423"/>
<line x1="923.96" y1="-3.45605" x2="923.96" y2="661.057" stroke="#FADAB1" stroke-width="0.747423"/>
<line x1="953.753" y1="-3.45605" x2="953.753" y2="661.057" stroke="#FADAB1" stroke-width="0.747423"/>
<line x1="983.546" y1="-3.45605" x2="983.546" y2="661.057" stroke="#FADAB1" stroke-width="0.747423"/>
<line x1="1013.34" y1="-3.45605" x2="1013.34" y2="661.057" stroke="#FADAB1" stroke-width="0.747423"/>
<line x1="1043.13" y1="-3.45605" x2="1043.13" y2="661.057" stroke="#FADAB1" stroke-width="0.747423"/>
<line x1="1072.93" y1="-3.45605" x2="1072.93" y2="661.057" stroke="#FADAB1" stroke-width="0.747423"/>
<line x1="1072.55" y1="29.7936" x2="0.0010986" y2="29.7935" stroke="#FADAB1" stroke-width="0.747423"/>
<line x1="1072.55" y1="62.6706" x2="0.0010986" y2="62.6705" stroke="#FADAB1" stroke-width="0.747423"/>
<line x1="1072.55" y1="95.5466" x2="0.0010986" y2="95.5465" stroke="#FADAB1" stroke-width="0.747423"/>
<line x1="1072.55" y1="128.423" x2="0.0010986" y2="128.422" stroke="#FADAB1" stroke-width="0.747423"/>
<line x1="1072.55" y1="161.299" x2="0.0010986" y2="161.299" stroke="#FADAB1" stroke-width="0.747423"/>
<line x1="1072.55" y1="194.175" x2="0.0010986" y2="194.175" stroke="#FADAB1" stroke-width="0.747423"/>
<line x1="1072.55" y1="227.051" x2="0.0010986" y2="227.051" stroke="#FADAB1" stroke-width="0.747423"/>
<line x1="1072.55" y1="259.928" x2="0.0010986" y2="259.928" stroke="#FADAB1" stroke-width="0.747423"/>
<line x1="1072.55" y1="292.804" x2="0.0010986" y2="292.804" stroke="#FADAB1" stroke-width="0.747423"/>
<line x1="1072.55" y1="325.681" x2="0.0010986" y2="325.681" stroke="#FADAB1" stroke-width="0.747423"/>
<line x1="1072.55" y1="358.557" x2="0.0010986" y2="358.557" stroke="#FADAB1" stroke-width="0.747423"/>
<line x1="1072.55" y1="391.433" x2="0.0010986" y2="391.433" stroke="#FADAB1" stroke-width="0.747423"/>
<line x1="1072.55" y1="424.31" x2="0.0010986" y2="424.31" stroke="#FADAB1" stroke-width="0.747423"/>
<line x1="1072.55" y1="457.186" x2="0.0010986" y2="457.186" stroke="#FADAB1" stroke-width="0.747423"/>
<line x1="1072.55" y1="490.062" x2="0.0010986" y2="490.062" stroke="#FADAB1" stroke-width="0.747423"/>
<line x1="1072.55" y1="522.939" x2="0.0010986" y2="522.939" stroke="#FADAB1" stroke-width="0.747423"/>
<line x1="1072.55" y1="555.815" x2="0.0010986" y2="555.815" stroke="#FADAB1" stroke-width="0.747423"/>
<line x1="1072.55" y1="588.691" x2="0.0010986" y2="588.691" stroke="#FADAB1" stroke-width="0.747423"/>
<line x1="1072.55" y1="621.568" x2="0.0010986" y2="621.568" stroke="#FADAB1" stroke-width="0.747423"/>
<rect x="89.3809" y="29.8311" width="29.6069" height="32.6708" fill="#FADAB1"/>
<rect x="178.759" y="161.132" width="29.6069" height="32.6708" fill="#FADAB1"/>
<rect x="268.138" y="227.09" width="29.6069" height="32.6708" fill="#FADAB1"/>
<rect x="953.567" y="62.502" width="29.6069" height="32.6708" fill="#FADAB1"/>
<rect x="864.187" y="127.843" width="29.6069" height="32.6708" fill="#FADAB1"/>
<path d="M953.007 259.759H923.4V227.088H953.007V259.759Z" fill="#FADAB1"/>
<rect x="804.415" y="292.432" width="29.6069" height="32.6708" fill="#FADAB1"/>
<rect x="893.794" y="358.389" width="29.6069" height="32.6708" fill="#FADAB1"/>
<rect x="983.171" y="424.348" width="29.6069" height="32.6708" fill="#FADAB1"/>
<rect x="864.187" y="588.316" width="29.6069" height="32.6708" fill="#FADAB1"/>
<rect x="89.3809" y="358.389" width="29.6069" height="32.6708" fill="#FADAB1"/>
<rect x="178.759" y="424.348" width="29.6069" height="32.6708" fill="#FADAB1"/>
<rect x="59.7725" y="522.358" width="29.6069" height="32.6708" fill="#FADAB1"/>
<rect y="621.604" width="29.6069" height="32.6708" fill="#FADAB1"/>
<rect x="268.138" y="358.389" width="29.6069" height="32.6708" fill="#FADAB1"/>
<line x1="1072.93" y1="-3.45605" x2="1072.93" y2="661.057" stroke="#FADAB1" stroke-width="0.747423"/>
<line x1="1102.72" y1="-3.45605" x2="1102.72" y2="661.057" stroke="#FADAB1" stroke-width="0.747423"/>
<line x1="1132.51" y1="-3.45605" x2="1132.51" y2="661.057" stroke="#FADAB1" stroke-width="0.747423"/>
<line x1="1162.31" y1="-3.45605" x2="1162.31" y2="661.057" stroke="#FADAB1" stroke-width="0.747423"/>
<line x1="1192.1" y1="-3.45605" x2="1192.1" y2="661.057" stroke="#FADAB1" stroke-width="0.747423"/>
<line x1="1221.89" y1="-3.45605" x2="1221.89" y2="661.057" stroke="#FADAB1" stroke-width="0.747423"/>
<line x1="1251.69" y1="-3.45605" x2="1251.69" y2="661.057" stroke="#FADAB1" stroke-width="0.747423"/>
<line x1="1281.48" y1="-3.45605" x2="1281.48" y2="661.057" stroke="#FADAB1" stroke-width="0.747423"/>
<line x1="1311.27" y1="-3.45605" x2="1311.27" y2="661.057" stroke="#FADAB1" stroke-width="0.747423"/>
<line x1="1341.06" y1="-3.45605" x2="1341.06" y2="661.057" stroke="#FADAB1" stroke-width="0.747423"/>
<line x1="1370.86" y1="-3.45605" x2="1370.86" y2="661.057" stroke="#FADAB1" stroke-width="0.747423"/>
<line x1="1400.65" y1="-3.45605" x2="1400.65" y2="661.057" stroke="#FADAB1" stroke-width="0.747423"/>
<line x1="1430.44" y1="-3.45605" x2="1430.44" y2="661.057" stroke="#FADAB1" stroke-width="0.747423"/>
<line x1="2145.1" y1="29.7936" x2="1072.55" y2="29.7935" stroke="#FADAB1" stroke-width="0.747423"/>
<line x1="2145.1" y1="62.6706" x2="1072.55" y2="62.6705" stroke="#FADAB1" stroke-width="0.747423"/>
<line x1="2145.1" y1="95.5466" x2="1072.55" y2="95.5465" stroke="#FADAB1" stroke-width="0.747423"/>
<line x1="2145.1" y1="128.423" x2="1072.55" y2="128.422" stroke="#FADAB1" stroke-width="0.747423"/>
<line x1="2145.1" y1="161.299" x2="1072.55" y2="161.299" stroke="#FADAB1" stroke-width="0.747423"/>
<line x1="2145.1" y1="194.175" x2="1072.55" y2="194.175" stroke="#FADAB1" stroke-width="0.747423"/>
<line x1="2145.1" y1="227.051" x2="1072.55" y2="227.051" stroke="#FADAB1" stroke-width="0.747423"/>
<line x1="2145.1" y1="259.928" x2="1072.55" y2="259.928" stroke="#FADAB1" stroke-width="0.747423"/>
<line x1="2145.1" y1="292.804" x2="1072.55" y2="292.804" stroke="#FADAB1" stroke-width="0.747423"/>
<line x1="2145.1" y1="325.681" x2="1072.55" y2="325.681" stroke="#FADAB1" stroke-width="0.747423"/>
<line x1="2145.1" y1="358.557" x2="1072.55" y2="358.557" stroke="#FADAB1" stroke-width="0.747423"/>
<line x1="2145.1" y1="391.433" x2="1072.55" y2="391.433" stroke="#FADAB1" stroke-width="0.747423"/>
<line x1="2145.1" y1="424.31" x2="1072.55" y2="424.31" stroke="#FADAB1" stroke-width="0.747423"/>
<line x1="2145.1" y1="457.186" x2="1072.55" y2="457.186" stroke="#FADAB1" stroke-width="0.747423"/>
<line x1="2145.1" y1="490.062" x2="1072.55" y2="490.062" stroke="#FADAB1" stroke-width="0.747423"/>
<line x1="2145.1" y1="522.939" x2="1072.55" y2="522.939" stroke="#FADAB1" stroke-width="0.747423"/>
<line x1="2145.1" y1="555.815" x2="1072.55" y2="555.815" stroke="#FADAB1" stroke-width="0.747423"/>
<line x1="2145.1" y1="588.691" x2="1072.55" y2="588.691" stroke="#FADAB1" stroke-width="0.747423"/>
<line x1="2145.1" y1="621.568" x2="1072.55" y2="621.568" stroke="#FADAB1" stroke-width="0.747423"/>
<rect x="1161.93" y="29.8311" width="29.6069" height="32.6708" fill="#FADAB1"/>
<rect x="1251.31" y="161.132" width="29.6069" height="32.6708" fill="#FADAB1"/>
<rect x="1340.69" y="227.09" width="29.6069" height="32.6708" fill="#FADAB1"/>
<rect x="1161.93" y="358.389" width="29.6069" height="32.6708" fill="#FADAB1"/>
<rect x="1251.31" y="424.348" width="29.6069" height="32.6708" fill="#FADAB1"/>
<rect x="1132.32" y="522.358" width="29.6069" height="32.6708" fill="#FADAB1"/>
<rect x="1072.55" y="621.604" width="29.6069" height="32.6708" fill="#FADAB1"/>
<rect x="1340.69" y="358.389" width="29.6069" height="32.6708" fill="#FADAB1"/>
<rect y="-69" width="1435" height="725" fill="url(#paint0_linear_935_14622)"/>
<rect y="-6" width="1435.05" height="725" fill="url(#paint1_radial_935_14622)"/>
<rect y="-6" width="1435.05" height="725" fill="url(#paint2_radial_935_14622)"/>
</g>
<defs>
<linearGradient id="paint0_linear_935_14622" x1="717.5" y1="-69" x2="717.5" y2="747.968" gradientUnits="userSpaceOnUse">
<stop offset="0.428561" stop-color="white" stop-opacity="0"/>
<stop offset="1" stop-color="white"/>
</linearGradient>
<radialGradient id="paint1_radial_935_14622" cx="0" cy="0" r="1" gradientUnits="userSpaceOnUse" gradientTransform="translate(717.526 163.291) rotate(90) scale(647.676 1282)">
<stop stop-color="white"/>
<stop offset="0.730862" stop-color="white" stop-opacity="0"/>
</radialGradient>
<radialGradient id="paint2_radial_935_14622" cx="0" cy="0" r="1" gradientUnits="userSpaceOnUse" gradientTransform="translate(717.526 163.291) rotate(90) scale(647.676 1282)">
<stop stop-color="white"/>
<stop offset="0.730862" stop-color="white" stop-opacity="0"/>
</radialGradient>
<clipPath id="clip0_935_14622">
<rect width="1435" height="655" fill="white" transform="translate(0 -1)"/>
</clipPath>
</defs>
</svg>
