<svg width="1435" height="885" viewBox="0 0 1435 885" fill="none" xmlns="http://www.w3.org/2000/svg">
<g clip-path="url(#clip0_1669_3273)">
<line x1="0.373711" y1="-2.4563" x2="0.373682" y2="662.056" stroke="#FADAB1" stroke-width="0.747423"/>
<line x1="30.1667" y1="-2.4563" x2="30.1667" y2="662.056" stroke="#FADAB1" stroke-width="0.747423"/>
<line x1="59.9596" y1="-2.4563" x2="59.9596" y2="662.056" stroke="#FADAB1" stroke-width="0.747423"/>
<line x1="89.7526" y1="-2.4563" x2="89.7526" y2="662.056" stroke="#FADAB1" stroke-width="0.747423"/>
<line x1="119.546" y1="-2.4563" x2="119.546" y2="662.056" stroke="#FADAB1" stroke-width="0.747423"/>
<line x1="149.339" y1="-2.4563" x2="149.339" y2="662.056" stroke="#FADAB1" stroke-width="0.747423"/>
<line x1="179.132" y1="-2.4563" x2="179.132" y2="662.056" stroke="#FADAB1" stroke-width="0.747423"/>
<line x1="208.924" y1="-2.4563" x2="208.924" y2="662.056" stroke="#FADAB1" stroke-width="0.747423"/>
<line x1="238.717" y1="-2.4563" x2="238.717" y2="662.056" stroke="#FADAB1" stroke-width="0.747423"/>
<line x1="268.51" y1="-2.4563" x2="268.51" y2="662.056" stroke="#FADAB1" stroke-width="0.747423"/>
<line x1="298.303" y1="-2.4563" x2="298.303" y2="662.056" stroke="#FADAB1" stroke-width="0.747423"/>
<line x1="328.096" y1="-2.4563" x2="328.096" y2="662.056" stroke="#FADAB1" stroke-width="0.747423"/>
<line x1="357.889" y1="-2.4563" x2="357.889" y2="662.056" stroke="#FADAB1" stroke-width="0.747423"/>
<line x1="387.682" y1="-2.4563" x2="387.682" y2="662.056" stroke="#FADAB1" stroke-width="0.747423"/>
<line x1="417.475" y1="-2.4563" x2="417.475" y2="662.056" stroke="#FADAB1" stroke-width="0.747423"/>
<line x1="447.272" y1="-2.4563" x2="447.272" y2="662.056" stroke="#FADAB1" stroke-width="0.747423"/>
<line x1="477.065" y1="-2.4563" x2="477.065" y2="662.056" stroke="#FADAB1" stroke-width="0.747423"/>
<line x1="506.858" y1="-2.4563" x2="506.858" y2="662.056" stroke="#FADAB1" stroke-width="0.747423"/>
<line x1="536.651" y1="-2.4563" x2="536.651" y2="662.056" stroke="#FADAB1" stroke-width="0.747423"/>
<line x1="566.444" y1="-2.4563" x2="566.444" y2="662.056" stroke="#FADAB1" stroke-width="0.747423"/>
<line x1="596.237" y1="-2.4563" x2="596.237" y2="662.056" stroke="#FADAB1" stroke-width="0.747423"/>
<line x1="626.03" y1="-2.4563" x2="626.03" y2="662.056" stroke="#FADAB1" stroke-width="0.747423"/>
<line x1="655.823" y1="-2.4563" x2="655.823" y2="662.056" stroke="#FADAB1" stroke-width="0.747423"/>
<line x1="685.616" y1="-2.4563" x2="685.616" y2="662.056" stroke="#FADAB1" stroke-width="0.747423"/>
<line x1="715.409" y1="-2.4563" x2="715.409" y2="662.056" stroke="#FADAB1" stroke-width="0.747423"/>
<line x1="745.202" y1="-2.4563" x2="745.202" y2="662.056" stroke="#FADAB1" stroke-width="0.747423"/>
<line x1="774.995" y1="-2.4563" x2="774.995" y2="662.056" stroke="#FADAB1" stroke-width="0.747423"/>
<line x1="804.788" y1="-2.4563" x2="804.788" y2="662.056" stroke="#FADAB1" stroke-width="0.747423"/>
<line x1="834.581" y1="-2.4563" x2="834.581" y2="662.056" stroke="#FADAB1" stroke-width="0.747423"/>
<line x1="864.374" y1="-2.4563" x2="864.374" y2="662.056" stroke="#FADAB1" stroke-width="0.747423"/>
<line x1="894.167" y1="-2.4563" x2="894.167" y2="662.056" stroke="#FADAB1" stroke-width="0.747423"/>
<line x1="923.96" y1="-2.4563" x2="923.96" y2="662.056" stroke="#FADAB1" stroke-width="0.747423"/>
<line x1="953.753" y1="-2.4563" x2="953.753" y2="662.056" stroke="#FADAB1" stroke-width="0.747423"/>
<line x1="983.546" y1="-2.4563" x2="983.546" y2="662.056" stroke="#FADAB1" stroke-width="0.747423"/>
<line x1="1013.34" y1="-2.4563" x2="1013.34" y2="662.056" stroke="#FADAB1" stroke-width="0.747423"/>
<line x1="1043.13" y1="-2.4563" x2="1043.13" y2="662.056" stroke="#FADAB1" stroke-width="0.747423"/>
<line x1="1072.92" y1="-2.4563" x2="1072.92" y2="662.056" stroke="#FADAB1" stroke-width="0.747423"/>
<line x1="1072.55" y1="30.7938" x2="0.00305173" y2="30.7937" stroke="#FADAB1" stroke-width="0.747423"/>
<line x1="1072.55" y1="63.6701" x2="0.00305173" y2="63.67" stroke="#FADAB1" stroke-width="0.747423"/>
<line x1="1072.55" y1="96.5464" x2="0.00305173" y2="96.5463" stroke="#FADAB1" stroke-width="0.747423"/>
<line x1="1072.55" y1="129.423" x2="0.00305173" y2="129.423" stroke="#FADAB1" stroke-width="0.747423"/>
<line x1="1072.55" y1="162.299" x2="0.00305173" y2="162.299" stroke="#FADAB1" stroke-width="0.747423"/>
<line x1="1072.55" y1="195.175" x2="0.00305173" y2="195.175" stroke="#FADAB1" stroke-width="0.747423"/>
<line x1="1072.55" y1="228.052" x2="0.00305173" y2="228.052" stroke="#FADAB1" stroke-width="0.747423"/>
<line x1="1072.55" y1="260.928" x2="0.00305173" y2="260.928" stroke="#FADAB1" stroke-width="0.747423"/>
<line x1="1072.55" y1="293.804" x2="0.00305173" y2="293.804" stroke="#FADAB1" stroke-width="0.747423"/>
<line x1="1072.55" y1="326.681" x2="0.00305173" y2="326.681" stroke="#FADAB1" stroke-width="0.747423"/>
<line x1="1072.55" y1="359.557" x2="0.00305173" y2="359.557" stroke="#FADAB1" stroke-width="0.747423"/>
<line x1="1072.55" y1="392.433" x2="0.00305173" y2="392.433" stroke="#FADAB1" stroke-width="0.747423"/>
<line x1="1072.55" y1="425.31" x2="0.00305173" y2="425.309" stroke="#FADAB1" stroke-width="0.747423"/>
<line x1="1072.55" y1="458.186" x2="0.00305173" y2="458.186" stroke="#FADAB1" stroke-width="0.747423"/>
<line x1="1072.55" y1="491.062" x2="0.00305173" y2="491.062" stroke="#FADAB1" stroke-width="0.747423"/>
<line x1="1072.55" y1="523.939" x2="0.00305173" y2="523.938" stroke="#FADAB1" stroke-width="0.747423"/>
<line x1="1072.55" y1="556.815" x2="0.00305173" y2="556.815" stroke="#FADAB1" stroke-width="0.747423"/>
<line x1="1072.55" y1="589.691" x2="0.00305173" y2="589.691" stroke="#FADAB1" stroke-width="0.747423"/>
<line x1="1072.55" y1="622.568" x2="0.00305173" y2="622.567" stroke="#FADAB1" stroke-width="0.747423"/>
<rect x="89.3828" y="30.8306" width="29.6069" height="32.6708" fill="#FADAB1"/>
<rect x="178.758" y="162.131" width="29.6069" height="32.6708" fill="#FADAB1"/>
<rect x="268.137" y="228.089" width="29.6069" height="32.6708" fill="#FADAB1"/>
<rect x="953.566" y="63.5012" width="29.6069" height="32.6708" fill="#FADAB1"/>
<rect x="864.188" y="128.843" width="29.6069" height="32.6708" fill="#FADAB1"/>
<path d="M953.005 260.759H923.398V228.088H953.005V260.759Z" fill="#FADAB1"/>
<rect x="804.414" y="293.431" width="29.6069" height="32.6708" fill="#FADAB1"/>
<rect x="893.793" y="359.388" width="29.6069" height="32.6708" fill="#FADAB1"/>
<rect x="983.172" y="425.347" width="29.6069" height="32.6708" fill="#FADAB1"/>
<rect x="864.188" y="589.316" width="29.6069" height="32.6708" fill="#FADAB1"/>
<rect x="89.3828" y="359.388" width="29.6069" height="32.6708" fill="#FADAB1"/>
<rect x="178.758" y="425.347" width="29.6069" height="32.6708" fill="#FADAB1"/>
<rect x="59.7734" y="523.358" width="29.6069" height="32.6708" fill="#FADAB1"/>
<rect y="622.604" width="29.6069" height="32.6708" fill="#FADAB1"/>
<rect x="268.137" y="359.388" width="29.6069" height="32.6708" fill="#FADAB1"/>
<line x1="1072.93" y1="-2.4563" x2="1072.93" y2="662.056" stroke="#FADAB1" stroke-width="0.747423"/>
<line x1="1102.72" y1="-2.4563" x2="1102.72" y2="662.056" stroke="#FADAB1" stroke-width="0.747423"/>
<line x1="1132.51" y1="-2.4563" x2="1132.51" y2="662.056" stroke="#FADAB1" stroke-width="0.747423"/>
<line x1="1162.31" y1="-2.4563" x2="1162.31" y2="662.056" stroke="#FADAB1" stroke-width="0.747423"/>
<line x1="1192.1" y1="-2.4563" x2="1192.1" y2="662.056" stroke="#FADAB1" stroke-width="0.747423"/>
<line x1="1221.89" y1="-2.4563" x2="1221.89" y2="662.056" stroke="#FADAB1" stroke-width="0.747423"/>
<line x1="1251.69" y1="-2.4563" x2="1251.69" y2="662.056" stroke="#FADAB1" stroke-width="0.747423"/>
<line x1="1281.48" y1="-2.4563" x2="1281.48" y2="662.056" stroke="#FADAB1" stroke-width="0.747423"/>
<line x1="1311.27" y1="-2.4563" x2="1311.27" y2="662.056" stroke="#FADAB1" stroke-width="0.747423"/>
<line x1="1341.07" y1="-2.4563" x2="1341.07" y2="662.056" stroke="#FADAB1" stroke-width="0.747423"/>
<line x1="1370.86" y1="-2.4563" x2="1370.86" y2="662.056" stroke="#FADAB1" stroke-width="0.747423"/>
<line x1="1400.65" y1="-2.4563" x2="1400.65" y2="662.056" stroke="#FADAB1" stroke-width="0.747423"/>
<line x1="1430.44" y1="-2.4563" x2="1430.44" y2="662.056" stroke="#FADAB1" stroke-width="0.747423"/>
<line x1="2145.11" y1="30.7938" x2="1072.55" y2="30.7937" stroke="#FADAB1" stroke-width="0.747423"/>
<line x1="2145.11" y1="63.6701" x2="1072.55" y2="63.67" stroke="#FADAB1" stroke-width="0.747423"/>
<line x1="2145.11" y1="96.5464" x2="1072.55" y2="96.5463" stroke="#FADAB1" stroke-width="0.747423"/>
<line x1="2145.11" y1="129.423" x2="1072.55" y2="129.423" stroke="#FADAB1" stroke-width="0.747423"/>
<line x1="2145.11" y1="162.299" x2="1072.55" y2="162.299" stroke="#FADAB1" stroke-width="0.747423"/>
<line x1="2145.11" y1="195.175" x2="1072.55" y2="195.175" stroke="#FADAB1" stroke-width="0.747423"/>
<line x1="2145.11" y1="228.052" x2="1072.55" y2="228.052" stroke="#FADAB1" stroke-width="0.747423"/>
<line x1="2145.11" y1="260.928" x2="1072.55" y2="260.928" stroke="#FADAB1" stroke-width="0.747423"/>
<line x1="2145.11" y1="293.804" x2="1072.55" y2="293.804" stroke="#FADAB1" stroke-width="0.747423"/>
<line x1="2145.11" y1="326.681" x2="1072.55" y2="326.681" stroke="#FADAB1" stroke-width="0.747423"/>
<line x1="2145.11" y1="359.557" x2="1072.55" y2="359.557" stroke="#FADAB1" stroke-width="0.747423"/>
<line x1="2145.11" y1="392.433" x2="1072.55" y2="392.433" stroke="#FADAB1" stroke-width="0.747423"/>
<line x1="2145.11" y1="425.31" x2="1072.55" y2="425.309" stroke="#FADAB1" stroke-width="0.747423"/>
<line x1="2145.11" y1="458.186" x2="1072.55" y2="458.186" stroke="#FADAB1" stroke-width="0.747423"/>
<line x1="2145.11" y1="491.062" x2="1072.55" y2="491.062" stroke="#FADAB1" stroke-width="0.747423"/>
<line x1="2145.11" y1="523.939" x2="1072.55" y2="523.938" stroke="#FADAB1" stroke-width="0.747423"/>
<line x1="2145.11" y1="556.815" x2="1072.55" y2="556.815" stroke="#FADAB1" stroke-width="0.747423"/>
<line x1="2145.11" y1="589.691" x2="1072.55" y2="589.691" stroke="#FADAB1" stroke-width="0.747423"/>
<line x1="2145.11" y1="622.568" x2="1072.55" y2="622.567" stroke="#FADAB1" stroke-width="0.747423"/>
<rect x="1161.93" y="30.8306" width="29.6069" height="32.6708" fill="#FADAB1"/>
<rect x="1251.31" y="162.131" width="29.6069" height="32.6708" fill="#FADAB1"/>
<rect x="1340.69" y="228.089" width="29.6069" height="32.6708" fill="#FADAB1"/>
<rect x="1161.93" y="359.388" width="29.6069" height="32.6708" fill="#FADAB1"/>
<rect x="1251.31" y="425.347" width="29.6069" height="32.6708" fill="#FADAB1"/>
<rect x="1132.33" y="523.358" width="29.6069" height="32.6708" fill="#FADAB1"/>
<rect x="1072.55" y="622.604" width="29.6069" height="32.6708" fill="#FADAB1"/>
<rect x="1340.69" y="359.388" width="29.6069" height="32.6708" fill="#FADAB1"/>
<rect y="-68" width="1435" height="725" fill="url(#paint0_linear_1669_3273)"/>
<rect y="-5" width="1435.05" height="725" fill="url(#paint1_radial_1669_3273)"/>
</g>
<defs>
<linearGradient id="paint0_linear_1669_3273" x1="717.5" y1="-68" x2="717.5" y2="748.968" gradientUnits="userSpaceOnUse">
<stop offset="0.428561" stop-color="white" stop-opacity="0"/>
<stop offset="1" stop-color="white"/>
</linearGradient>
<radialGradient id="paint1_radial_1669_3273" cx="0" cy="0" r="1" gradientUnits="userSpaceOnUse" gradientTransform="translate(717.526 164.291) rotate(90) scale(647.676 1282)">
<stop stop-color="white"/>
<stop offset="0.730862" stop-color="white" stop-opacity="0"/>
</radialGradient>
<clipPath id="clip0_1669_3273">
<rect width="1435" height="655" fill="white"/>
</clipPath>
</defs>
</svg>
